<svg width="22" height="20" xmlns="http://www.w3.org/2000/svg" xmlns:xlink="http://www.w3.org/1999/xlink"><defs><path d="M399.333 344.746c0 .226-.166.44-.333.604l-4.654 4.459 1.103 6.297c.013.088.013.164.013.252 0 .327-.154.63-.526.63-.18 0-.36-.064-.513-.152l-5.756-2.972-5.757 2.972a1.097 1.097 0 0 1-.513.151c-.371 0-.538-.302-.538-.63 0-.087.013-.163.026-.251l1.102-6.297-4.666-4.459c-.154-.164-.321-.378-.321-.604 0-.378.397-.53.718-.58l6.436-.92 2.884-5.73c.116-.239.334-.516.629-.516s.512.277.628.516l2.884 5.73 6.436.92c.308.05.718.202.718.58z" id="a"/><clipPath id="b"><use xlink:href="#a" fill="#fff"/></clipPath></defs><g transform="translate(-378 -337)" fill="#fff"><use xlink:href="#a"/><use xlink:href="#a" fill-opacity="0" stroke="#dfdfdf" stroke-miterlimit="50" stroke-width="2.667" clip-path="url(&quot;#b&quot;)"/></g></svg>