<svg width="16" height="15" xmlns="http://www.w3.org/2000/svg"><g fill="none"><path d="M8 0c-.221 0-.385.208-.471.387L5.365 4.685l-4.827.69c-.23.037-.538.15-.538.434 0 .17.125.33.25.454l3.49 3.343-.827 4.723c-.01.066-.01.123-.01.19 0 .245.116.472.395.472.135 0 .27-.048.385-.114L8 12.648V0z" fill="#FF8C52"/><path d="M8 0v12.648l4.317 2.23c.125.065.25.113.385.113.279 0 .404-.227.404-.473 0-.066-.01-.123-.02-.189l-.826-4.723 3.5-3.343c.115-.123.24-.284.24-.454 0-.283-.298-.397-.538-.434l-4.827-.69L8.47.387C8.385.207 8.221 0 8 0z" fill="#F0F0F0"/></g></svg>