<svg width="12" height="12" xmlns="http://www.w3.org/2000/svg" xmlns:xlink="http://www.w3.org/1999/xlink"><defs><path d="M4.8 6.545v4.91c0 .3-.269.545-.6.545-.331 0-.6-.244-.6-.545V6c0-.301.269-.545.6-.545h3.6c.331 0 .6.244.6.545v5.455c0 .3-.269.545-.6.545-.331 0-.6-.244-.6-.545v-4.91H4.8zM1.2 10.91h9.6V4.63L6 1.463 1.2 4.63v6.28zm-1.2.546V4.364a.53.53 0 0 1 .232-.43l5.4-3.82a.648.648 0 0 1 .736 0l5.4 3.82a.53.53 0 0 1 .232.43v7.09c0 .302-.269.546-.6.546H.6c-.331 0-.6-.244-.6-.545z" id="a"/></defs><use fill="#306bc9" xlink:href="#a"/></svg>