<svg width="25" height="25" xmlns="http://www.w3.org/2000/svg" xmlns:xlink="http://www.w3.org/1999/xlink"><defs><path d="M12.5 2.344C6.9 2.344 2.344 6.899 2.344 12.5c0 5.6 4.555 10.156 10.156 10.156 5.6 0 10.156-4.555 10.156-10.156 0-5.6-4.555-10.156-10.156-10.156M12.5 25C5.607 25 0 19.393 0 12.5S5.607 0 12.5 0 25 5.607 25 12.5 19.393 25 12.5 25m-2.36-14.86l-1.773 6.49 6.493-1.77 1.77-6.491-6.49 1.77zm-3.443 9.333a1.174 1.174 0 0 1-1.131-1.481l2.489-9.116c.109-.398.423-.712.822-.822l9.113-2.487a1.172 1.172 0 0 1 1.44 1.439l-2.484 9.118a1.17 1.17 0 0 1-.822.822l-9.12 2.485a1.16 1.16 0 0 1-.307.042zm7.354-6.968a1.557 1.557 0 1 1-3.113 0 1.557 1.557 0 0 1 3.113 0" id="a"/></defs><use fill="#306bc9" xlink:href="#a" fill-rule="evenodd"/></svg>