<svg xmlns="http://www.w3.org/2000/svg" xmlns:xlink="http://www.w3.org/1999/xlink" width="226" height="46"><defs><path id="a" d="M38 322.245c0-12.427 10.074-22.5 22.5-22.5s22.5 10.073 22.5 22.5c0 12.426-10.074 22.5-22.5 22.5S38 334.67 38 322.245zm30.512-10.225c-1.541-1.517-3.416-2.275-5.625-2.275H52v25.487h11.943c2.5 0 4.442-.758 5.826-2.275 1.383-1.517 2.087-3.441 2.111-5.771 0-2.428-1.02-4.163-3.058-5.207.607-.51 1.092-1.177 1.456-2.003.364-.825.546-1.626.546-2.403 0-2.185-.77-4.035-2.312-5.553z"/><path id="b" d="M247.09 309.057v25.446h16.24v-5.78h-9.758v-4.47h8.666v-5.78h-8.666v-3.6h9.43v-5.816zm-26.015 22.502a13.59 13.59 0 0 0 4.17 2.38c1.529.546 3.118.819 4.77.819 1.917 0 3.7-.321 5.351-.963 1.651-.643 3.114-1.745 4.388-3.308 1.274-1.564 2.057-3.484 2.348-5.762h-6.408c-.34 1.333-1.013 2.35-2.02 3.053-1.008.703-2.228 1.055-3.66 1.055-1.869-.025-3.392-.721-4.57-2.09-1.177-1.37-1.765-3.024-1.765-4.963 0-2.108.582-3.817 1.747-5.125 1.165-1.309 2.695-1.963 4.588-1.963 2.84 0 4.697 1.248 5.57 3.744h6.41c-.462-3.175-1.846-5.58-4.152-7.216-2.306-1.636-4.915-2.454-7.828-2.454-1.65 0-3.24.28-4.77.837a13.893 13.893 0 0 0-4.169 2.399c-1.25 1.042-2.251 2.411-3.004 4.108-.752 1.696-1.128 3.586-1.128 5.67 0 2.085.376 3.975 1.128 5.671.753 1.697 1.754 3.066 3.004 4.108zm-9.084 2.98v-25.482h-6.664v12.469l-12.889-12.578h-2.367v25.555h6.736v-12.505l12.853 12.542zm-41.072-8.796l2.872-6.689 2.944 6.689zm15.803 8.76v-.945l-11.506-24.828h-2.804l-11.47 24.828v.945h6.373l1.492-3.199h10.05l1.493 3.2zm-42.856-25.446v25.446h15.802v-5.852h-9.248v-19.594zm-19.116 16.686l2.877-6.689 2.949 6.689zm15.803 8.76v-.945l-11.506-24.828h-2.804l-11.47 24.828v.945h6.373l1.492-3.199h10.05l1.493 3.2zm-35.438-18.61c.34.681.346 1.367.018 2.06-.327.692-.902 1.038-1.726 1.038h-4.108v-4.117h4.071c.824 0 1.406.34 1.745 1.02zm1.102 9.598c.34.728.346 1.451.018 2.168-.327.716-.904 1.074-1.73 1.074H99.3v-4.335h5.17c.826 0 1.408.364 1.748 1.093zm3.295-14.162c-1.541-1.514-3.416-2.272-5.625-2.272H93v25.446h11.943c2.5 0 4.442-.757 5.826-2.272 1.383-1.514 2.087-3.435 2.111-5.761 0-2.424-1.02-4.157-3.058-5.199.607-.509 1.092-1.175 1.456-1.999.364-.824.546-1.624.546-2.4 0-2.18-.77-4.028-2.312-5.543z"/></defs><use fill="#fff" xlink:href="#a" transform="translate(-38 -299)"/><use fill="#fff" xlink:href="#b" transform="translate(-38 -299)"/></svg>