<svg xmlns="http://www.w3.org/2000/svg" xmlns:xlink="http://www.w3.org/1999/xlink" width="226" height="45"><defs><path id="a" d="M38 295.5a22.5 22.5 0 1 1 45 0 22.5 22.5 0 0 1-45 0z"/><path id="c" d="M38 318v-45h45v45z"/><path id="d" d="M70.82 290.83c0 .78-.18 1.58-.54 2.4-.37.83-.85 1.5-1.46 2 2.04 1.05 3.06 2.78 3.06 5.21a8.37 8.37 0 0 1-2.11 5.77c-1.39 1.52-3.33 2.28-5.83 2.28H52V283h10.89c2.2 0 4.08.76 5.62 2.28a7.5 7.5 0 0 1 2.31 5.55z"/><path id="e" d="M247.1 282.33v25.49h16.23v-5.8h-9.76v-4.47h8.67v-5.8h-8.67v-3.6H263v-5.82zm-26.02 22.54a13.58 13.58 0 0 0 4.16 2.38c1.53.55 3.12.82 4.77.82 1.92 0 3.7-.32 5.36-.96a10.63 10.63 0 0 0 4.38-3.32 11.17 11.17 0 0 0 2.35-5.77h-6.4a5.12 5.12 0 0 1-2.03 3.06c-1 .7-2.22 1.06-3.66 1.06a5.85 5.85 0 0 1-4.57-2.1 7.37 7.37 0 0 1-1.76-4.97c0-2.11.58-3.82 1.75-5.13a5.84 5.84 0 0 1 4.58-1.97c2.84 0 4.7 1.25 5.57 3.75H242c-.46-3.18-1.84-5.59-4.15-7.23a13.19 13.19 0 0 0-7.83-2.45 13.8 13.8 0 0 0-8.93 3.24 11.1 11.1 0 0 0-3 4.11c-.76 1.7-1.14 3.6-1.14 5.68 0 2.09.38 3.98 1.13 5.68a11.1 11.1 0 0 0 3 4.12zm-9.09 2.98v-25.52h-6.66v12.49l-12.9-12.6h-2.36v25.6h6.74v-12.53l12.85 12.56zm-41.07-8.81l2.87-6.7 2.94 6.7zm15.8 8.78v-.95L175.22 282h-2.8l-11.48 24.87v.95h6.37l1.5-3.2h10.05l1.49 3.2zm-42.85-25.5v25.5h15.8v-5.87h-9.25v-19.62zm-19.12 16.72l2.88-6.7 2.95 6.7zm15.8 8.78v-.95L129.05 282h-2.8l-11.48 24.87v.95h6.38l1.49-3.2h10.05l1.5 3.2zm-35.43-18.64c.33.68.34 1.36.01 2.06-.32.7-.9 1.04-1.72 1.04H99.3v-4.13h4.07c.82 0 1.4.34 1.75 1.03zm1.1 9.6c.34.74.34 1.46.02 2.18-.33.72-.9 1.08-1.73 1.08H99.3v-4.35h5.17c.82 0 1.4.37 1.75 1.1zm3.3-14.18a7.72 7.72 0 0 0-5.63-2.27H93v25.49h11.94c2.5 0 4.44-.76 5.83-2.28a8.37 8.37 0 0 0 2.11-5.77c0-2.43-1.02-4.16-3.06-5.2.6-.52 1.1-1.19 1.46-2.01.36-.83.54-1.63.54-2.4a7.5 7.5 0 0 0-2.3-5.56z"/><clipPath id="b"><use xlink:href="#a"/></clipPath></defs><use fill="#4978fd" xlink:href="#a" transform="translate(-38 -273)"/><g clip-path="url(#b)" transform="translate(-38 -273)"><use fill="#306bc9" xlink:href="#c"/></g><g clip-path="url(#b)" transform="translate(-38 -273)"><use fill="#fff" xlink:href="#d"/></g><use xlink:href="#e" transform="translate(-38 -273)"/></svg>