<svg xmlns="http://www.w3.org/2000/svg" xmlns:xlink="http://www.w3.org/1999/xlink" width="228" height="100"><defs><path id="a" d="M125 556.5a27.5 27.5 0 1 1 55 0 27.5 27.5 0 0 1-55 0z"/><path id="c" d="M125 584v-55h55v55z"/><path id="d" d="M165.12 550.79c0 .95-.22 1.93-.67 2.94a6.62 6.62 0 0 1-1.78 2.44c2.5 1.28 3.74 3.4 3.74 6.37-.03 2.85-.9 5.2-2.58 7.05-1.7 1.86-4.07 2.78-7.12 2.78h-14.6v-31.15h13.3c2.7 0 5 .93 6.88 2.78a9.16 9.16 0 0 1 2.83 6.79z"/><path id="e" d="M244.26 594.44v34.22H266v-7.77h-13.06v-6.02h11.6v-7.77h-11.6v-4.84h12.62v-7.82zm-34.82 30.26a18.17 18.17 0 0 0 5.58 3.2 18.8 18.8 0 0 0 6.38 1.1c2.57 0 4.96-.43 7.17-1.3 2.2-.86 4.17-2.34 5.87-4.44 1.7-2.1 2.76-4.69 3.15-7.75H229a6.87 6.87 0 0 1-2.7 4.1 8.32 8.32 0 0 1-4.9 1.42 7.82 7.82 0 0 1-6.12-2.8 9.92 9.92 0 0 1-2.37-6.68c0-2.84.78-5.13 2.34-6.9a7.81 7.81 0 0 1 6.14-2.63c3.8 0 6.3 1.68 7.46 5.03h8.58c-.62-4.27-2.47-7.5-5.56-9.7a17.62 17.62 0 0 0-10.48-3.3 18.42 18.42 0 0 0-11.96 4.35 14.91 14.91 0 0 0-4.02 5.52c-1.01 2.28-1.51 4.83-1.51 7.63s.5 5.34 1.5 7.62c1.01 2.29 2.36 4.13 4.03 5.53zm-12.16 4.02v-34.28h-8.92v16.77L171.1 594.3h-3.17v34.38h9.01v-16.82l17.2 16.87zm-54.98-11.83l3.85-9 3.95 9zm21.14 11.77v-1.27L148.04 594h-3.75l-15.34 33.39v1.27h8.52l2-4.3h13.45l2 4.3zm-57.35-34.22v34.22h21.15v-7.87h-12.38v-26.35zM80.5 616.89l3.85-9 3.95 9zm21.14 11.77v-1.27L86.24 594H82.5l-15.34 33.39v1.27h8.52l2-4.3h13.45l2 4.3zm-47.41-25.03c.45.91.46 1.83.02 2.76-.43.93-1.2 1.4-2.31 1.4h-5.5v-5.53h5.45c1.1 0 1.89.46 2.34 1.37zm1.46 12.9c.46.98.47 1.95.03 2.91-.44.96-1.21 1.45-2.32 1.45h-6.97v-5.82h6.92c1.1 0 1.89.49 2.34 1.46zm4.41-19.03a10.32 10.32 0 0 0-7.53-3.06H38v34.22h15.99c3.34 0 5.94-1.02 7.8-3.06 1.85-2.03 2.79-4.62 2.82-7.75 0-3.25-1.36-5.58-4.1-6.99a7.27 7.27 0 0 0 1.96-2.68c.48-1.11.73-2.19.73-3.23 0-2.93-1.03-5.42-3.1-7.45z"/><clipPath id="b"><use xlink:href="#a"/></clipPath></defs><use fill="#4978fd" xlink:href="#a" transform="translate(-38 -529)"/><g clip-path="url(#b)" transform="translate(-38 -529)"><use fill="#306bc9" xlink:href="#c"/></g><g clip-path="url(#b)" transform="translate(-38 -529)"><use fill="#fff" xlink:href="#d"/></g><use xlink:href="#e" transform="translate(-38 -529)"/></svg>