<svg width="20" height="20" xmlns="http://www.w3.org/2000/svg" xmlns:xlink="http://www.w3.org/1999/xlink"><defs><path d="M15.392 18.125a.86.86 0 0 1 0-1.718.86.86 0 0 1 0 1.718zm-8.438 0a.86.86 0 0 1 0-1.718c.474 0 .86.386.86.86a.861.861 0 0 1-.86.858zM4.634 5h13.185l-1.65 5.782H6.058L5.19 7.279 4.634 5zm1.887 7.657h10.354a.937.937 0 0 0 .902-.68l2.186-7.657a.934.934 0 0 0-.9-1.195h-14.9L3.569.713A.939.939 0 0 0 2.656 0H.938a.938.938 0 0 0 0 1.875h.986l1.446 5.85 1.033 4.218c.005.019.017.034.023.054l.787 3.18a2.716 2.716 0 0 0-.994 2.09A2.738 2.738 0 0 0 6.954 20a2.738 2.738 0 0 0 2.735-2.734c0-.303-.061-.59-.153-.86h3.273a2.686 2.686 0 0 0-.152.86A2.738 2.738 0 0 0 15.392 20a2.738 2.738 0 0 0 2.735-2.734 2.738 2.738 0 0 0-2.735-2.735c-.018 0-.034.005-.053.005-.009 0-.016-.005-.025-.005H7.033c-.01 0-.018.005-.027.005l-.02-.002-.465-1.878z" id="a"/></defs><use fill="#2824FF" xlink:href="#a" fill-rule="evenodd"/></svg>