<svg width="40" height="40" xmlns="http://www.w3.org/2000/svg" xmlns:xlink="http://www.w3.org/1999/xlink"><defs><path d="M20 40c11.046 0 20-8.954 20-20S31.046 0 20 0 0 8.954 0 20s8.954 20 20 20zm0-36.25c8.975 0 16.25 7.275 16.25 16.25S28.975 36.25 20 36.25 3.75 28.975 3.75 20 11.025 3.75 20 3.75zm0 19.64c4.53 0 8.837-1.204 12.5-3.318C31.93 27.042 26.518 32.5 20 32.5S8.07 27.036 7.5 20.066A25.033 25.033 0 0 0 20 23.39zm-10-9.64c0-2.071 1.12-3.75 2.5-3.75s2.5 1.679 2.5 3.75c0 2.071-1.12 3.75-2.5 3.75S10 15.821 10 13.75zm15 0c0-2.071 1.12-3.75 2.5-3.75s2.5 1.679 2.5 3.75c0 2.071-1.12 3.75-2.5 3.75S25 15.821 25 13.75z" id="a"/></defs><use fill="#FF003B" xlink:href="#a"/></svg>