<svg width="158" height="178" xmlns="http://www.w3.org/2000/svg"><path d="M57.167 199H38.833c-7.58 0-13.75-6.17-13.75-13.75v-17.068a81.822 81.822 0 0 1-16.87-7L-3.86 173.26c-5.198 5.198-14.25 5.188-19.448 0l-12.966-12.962a13.649 13.649 0 0 1-4.029-9.72c0-3.672 1.43-7.128 4.03-9.722l12.076-12.082a81.3 81.3 0 0 1-6.99-16.862H-48.25c-7.58 0-13.75-6.17-13.75-13.75V79.83c0-3.676 1.43-7.127 4.024-9.721a13.678 13.678 0 0 1 9.726-4.03h17.068a81.836 81.836 0 0 1 6.994-16.861L-36.26 37.14c-5.363-5.363-5.363-14.08 0-19.443l12.962-12.966c5.193-5.188 14.25-5.198 19.447 0L8.226 16.808a81.782 81.782 0 0 1 16.857-6.99V-7.25c0-7.58 6.17-13.75 13.75-13.75h18.334c7.58 0 13.75 6.17 13.75 13.75V9.818a81.868 81.868 0 0 1 16.857 6.99L99.851 4.73c5.198-5.188 14.25-5.198 19.447 0l12.967 12.962a13.649 13.649 0 0 1 4.028 9.72c0 3.672-1.43 7.128-4.028 9.722l-12.073 12.077c2.96 5.353 5.303 11 6.994 16.867h17.064c7.58 0 13.75 6.169 13.75 13.75v18.333c0 3.676-1.43 7.127-4.024 9.721a13.67 13.67 0 0 1-9.726 4.03h-17.068a81.812 81.812 0 0 1-6.995 16.866l12.073 12.077c5.363 5.362 5.363 14.08 0 19.442l-12.962 12.967c-5.197 5.193-14.25 5.193-19.447 0l-12.068-12.077a81.836 81.836 0 0 1-16.862 6.994v17.068c-.004 7.58-6.169 13.75-13.754 13.75zM7.47 150.866c.82 0 1.65.22 2.388.669a72.772 72.772 0 0 0 20.886 8.667 4.583 4.583 0 0 1 3.506 4.455v20.593a4.588 4.588 0 0 0 4.583 4.583h18.334a4.588 4.588 0 0 0 4.583-4.583v-20.593a4.583 4.583 0 0 1 3.506-4.455 72.765 72.765 0 0 0 20.882-8.662 4.588 4.588 0 0 1 5.633.669l14.566 14.57c1.718 1.714 4.762 1.724 6.485 0l12.962-12.966a4.587 4.587 0 0 0 0-6.48l-14.57-14.571a4.582 4.582 0 0 1-.67-5.633 72.69 72.69 0 0 0 8.658-20.882 4.584 4.584 0 0 1 4.455-3.51h20.593a4.563 4.563 0 0 0 3.245-1.344 4.514 4.514 0 0 0 1.338-3.23V79.828a4.588 4.588 0 0 0-4.583-4.584h-20.593a4.579 4.579 0 0 1-4.455-3.51 72.647 72.647 0 0 0-8.658-20.882 4.584 4.584 0 0 1 .67-5.633l14.57-14.57a4.626 4.626 0 0 0 1.343-3.24c0-1.206-.49-2.389-1.343-3.241l-12.967-12.962c-1.732-1.728-4.752-1.728-6.485 0l-14.57 14.57a4.562 4.562 0 0 1-5.633.67 72.712 72.712 0 0 0-20.873-8.658 4.57 4.57 0 0 1-3.506-4.446V-7.25a4.588 4.588 0 0 0-4.583-4.583H38.833A4.588 4.588 0 0 0 34.25-7.25v20.593a4.583 4.583 0 0 1-3.506 4.455 72.753 72.753 0 0 0-20.882 8.658 4.575 4.575 0 0 1-5.628-.67l-14.57-14.57c-1.733-1.728-4.754-1.728-6.486 0L-29.78 24.178a4.587 4.587 0 0 0 0 6.48l14.57 14.571a4.582 4.582 0 0 1 .67 5.633 72.673 72.673 0 0 0-8.659 20.877 4.584 4.584 0 0 1-4.454 3.511H-48.25a4.563 4.563 0 0 0-3.245 1.343 4.533 4.533 0 0 0-1.338 3.236v18.333a4.588 4.588 0 0 0 4.583 4.583h20.593a4.579 4.579 0 0 1 4.455 3.511 72.717 72.717 0 0 0 8.658 20.877 4.584 4.584 0 0 1-.67 5.633l-14.57 14.575a4.626 4.626 0 0 0-1.343 3.24c0 1.206.49 2.389 1.343 3.241l12.966 12.962c1.728 1.728 4.753 1.728 6.486 0l14.566-14.57a4.537 4.537 0 0 1 3.236-1.348zM48 135c-25.364 0-46-20.636-46-46s20.636-46 46-46 46 20.636 46 46-20.631 46-46 46zm0-82.8c-20.29 0-36.8 16.51-36.8 36.8 0 20.29 16.51 36.8 36.8 36.8 20.29 0 36.8-16.51 36.8-36.8 0-20.29-16.505-36.8-36.8-36.8z" fill="#FFF" opacity=".1"/></svg>