<svg width="14" height="14" xmlns="http://www.w3.org/2000/svg" xmlns:xlink="http://www.w3.org/1999/xlink"><defs><path d="M12.687 6.072l-6.343 6.344-4.76-4.76 6.344-6.343h3.394l1.365 1.365v3.394zm1.12-4.13l-1.75-1.75A.656.656 0 0 0 11.594 0H7.656a.656.656 0 0 0-.464.192l-7 7a.656.656 0 0 0 0 .928l5.688 5.688a.655.655 0 0 0 .927 0l7-7A.655.655 0 0 0 14 6.344V2.406a.655.655 0 0 0-.193-.464zm-4.4 3.311a.658.658 0 0 1-.657-.656.657.657 0 0 1 1.312 0 .658.658 0 0 1-.656.656m0-2.625a1.972 1.972 0 0 0-1.969 1.969c0 1.085.884 1.969 1.97 1.969a1.972 1.972 0 0 0 1.968-1.97 1.972 1.972 0 0 0-1.969-1.968" id="a"/></defs><use fill="#FF9A00" xlink:href="#a" fill-rule="evenodd"/></svg>