<svg width="25" height="25" xmlns="http://www.w3.org/2000/svg" xmlns:xlink="http://www.w3.org/1999/xlink"><defs><path d="M22.656 10.842L11.328 22.171l-8.499-8.499L14.158 2.344h6.06l2.438 2.437v6.061zm2-7.375L21.531.342A1.172 1.172 0 0 0 20.703 0h-7.031c-.311 0-.61.123-.828.342l-12.5 12.5a1.172 1.172 0 0 0 0 1.658L10.5 24.657a1.17 1.17 0 0 0 1.656 0l12.5-12.5c.22-.22.344-.518.344-.829V4.297c0-.313-.123-.61-.344-.83zm-7.86 5.913a1.174 1.174 0 0 1-1.171-1.171c0-.646.526-1.172 1.172-1.172.645 0 1.172.526 1.172 1.172 0 .645-.527 1.171-1.172 1.171m0-4.687a3.521 3.521 0 0 0-3.516 3.516 3.521 3.521 0 0 0 3.516 3.515 3.521 3.521 0 0 0 3.515-3.515 3.521 3.521 0 0 0-3.515-3.516" id="a"/></defs><use fill="#306bc9" xlink:href="#a" fill-rule="evenodd"/></svg>