<svg width="40" height="40" xmlns="http://www.w3.org/2000/svg" xmlns:xlink="http://www.w3.org/1999/xlink"><defs><path d="M36.667 3.75H31.25v-2.5a1.249 1.249 0 1 0-2.5 0v2.5h-7.5v-2.5a1.25 1.25 0 1 0-2.5 0v2.5h-7.5v-2.5a1.25 1.25 0 1 0-2.5 0v2.5H3.334A3.333 3.333 0 0 0 0 7.082v29.584A3.334 3.334 0 0 0 3.334 40h33.333A3.333 3.333 0 0 0 40 36.666V7.083a3.332 3.332 0 0 0-3.333-3.333zm.833 32.916c0 .46-.374.834-.833.834H3.334a.834.834 0 0 1-.834-.834V7.083c0-.46.374-.833.834-.833H8.75v2.5a1.25 1.25 0 1 0 2.5 0v-2.5h7.5v2.5a1.25 1.25 0 1 0 2.5 0v-2.5h7.5v2.5a1.249 1.249 0 1 0 2.5 0v-2.5h5.417c.46 0 .833.374.833.832v29.584zM8.75 15h5v3.75h-5V15zm0 6.25h5V25h-5v-3.75zm0 6.25h5v3.75h-5V27.5zm8.75 0h5v3.75h-5V27.5zm0-6.25h5V25h-5v-3.75zm0-6.25h5v3.75h-5V15zm8.75 12.5h5v3.75h-5V27.5zm0-6.25h5V25h-5v-3.75zm0-6.25h5v3.75h-5V15z" id="a"/></defs><use fill="#306BC9" xlink:href="#a"/></svg>