<svg width="16" height="16" xmlns="http://www.w3.org/2000/svg" xmlns:xlink="http://www.w3.org/1999/xlink"><defs><path d="M10.047 0C6.87 0 4.29 2.6 4.29 5.9c0 1.3.497 2.6 1.191 3.6L.223 14.8a.79.79 0 0 0 0 1.1c.199 0 .397.1.596.1.198 0 .397-.1.496-.2l5.259-5.3c.992.8 2.183 1.2 3.572 1.2C13.32 11.7 16 9.1 16 5.8 15.9 2.6 13.32 0 10.047 0zm0 10.3c-2.382 0-4.366-2-4.366-4.4 0-2.4 1.984-4.4 4.366-4.4 2.38 0 4.365 2 4.365 4.4 0 2.4-1.984 4.4-4.365 4.4z" id="a"/></defs><use fill="#3B2930" transform="matrix(-1 0 0 1 16 0)" xlink:href="#a"/></svg>