<svg width="16" height="17" xmlns="http://www.w3.org/2000/svg"><defs><linearGradient x1="50%" y1="99.709%" x2="50%" y2=".777%" id="a"><stop stop-color="#E09B3D" offset="0%"/><stop stop-color="#C74C4D" offset="30%"/><stop stop-color="#C21975" offset="60%"/><stop stop-color="#7024C4" offset="100%"/></linearGradient><linearGradient x1="50%" y1="146.099%" x2="50%" y2="-45.16%" id="b"><stop stop-color="#E09B3D" offset="0%"/><stop stop-color="#C74C4D" offset="30%"/><stop stop-color="#C21975" offset="60%"/><stop stop-color="#7024C4" offset="100%"/></linearGradient><linearGradient x1="50%" y1="658.141%" x2="50%" y2="-140.029%" id="c"><stop stop-color="#E09B3D" offset="0%"/><stop stop-color="#C74C4D" offset="30%"/><stop stop-color="#C21975" offset="60%"/><stop stop-color="#7024C4" offset="100%"/></linearGradient></defs><g transform="translate(0 .802)" fill="none"><path d="M11.214 0H4.758C2.134 0 0 2.074 0 4.624v6.273c0 2.55 2.134 4.624 4.758 4.624h6.456c2.624 0 4.758-2.074 4.758-4.624V4.624c0-2.55-2.135-4.624-4.758-4.624zm3.151 10.897c0 1.691-1.41 3.062-3.151 3.062H4.758c-1.74 0-3.151-1.37-3.151-3.062V4.624c0-1.692 1.41-3.063 3.151-3.063h6.456c1.74 0 3.151 1.371 3.151 3.063v6.273z" fill="url(#a)"/><path d="M7.986 3.746c-2.278 0-4.13 1.801-4.13 4.014 0 2.214 1.852 4.015 4.13 4.015 2.278 0 4.13-1.801 4.13-4.015 0-2.213-1.852-4.014-4.13-4.014zm0 6.467c-1.394 0-2.524-1.098-2.524-2.453 0-1.354 1.13-2.452 2.524-2.452 1.394 0 2.524 1.098 2.524 2.452 0 1.355-1.13 2.453-2.524 2.453z" fill="url(#b)"/><ellipse fill="url(#c)" cx="12.125" cy="3.776" rx="1" ry="1"/></g></svg>