<svg xmlns="http://www.w3.org/2000/svg" xmlns:xlink="http://www.w3.org/1999/xlink" width="20" height="20"><defs><path id="a" d="M451 865c0-5.523 4.477-10 10-10s10 4.477 10 10-4.477 10-10 10-10-4.477-10-10z"/><path id="b" d="M460.052 865.796l3.791-3.55a.937.937 0 0 1 1.264 0l.631.59a.8.8 0 0 1 0 1.185l-5.054 4.734a.937.937 0 0 1-1.263 0l-3.16-2.96a.8.8 0 0 1 0-1.183l.632-.591a.937.937 0 0 1 1.264 0z"/></defs><use fill="#02bc2c" xlink:href="#a" transform="translate(-451 -855)"/><use fill="#fff" xlink:href="#b" transform="translate(-451 -855)"/></svg>