<svg width="22" height="20" xmlns="http://www.w3.org/2000/svg" xmlns:xlink="http://www.w3.org/1999/xlink"><defs><path d="M376.667 344.746c0 .226-.167.44-.334.604l-4.654 4.459 1.103 6.297c.013.088.013.164.013.252 0 .327-.154.63-.526.63-.18 0-.359-.064-.513-.152L366 353.864l-5.756 2.972a1.097 1.097 0 0 1-.513.151c-.372 0-.539-.302-.539-.63 0-.087.013-.163.026-.251l1.103-6.297-4.667-4.459c-.154-.164-.32-.378-.32-.604 0-.378.397-.53.717-.58l6.436-.92 2.885-5.73c.115-.239.333-.516.628-.516s.513.277.628.516l2.885 5.73 6.436.92c.307.05.718.202.718.58z" id="a"/></defs><use xlink:href="#a" fill="#ff8c52" transform="translate(-355 -337)"/></svg>