<svg xmlns="http://www.w3.org/2000/svg" width="506" height="510"><path d="M388.4 196.3h-80.5c-8.7-.4-16.3-3.2-20-11.6-3.6-8.3.7-15 6.3-20.6 10.5-10.7 21.3-21.1 32-31.6 1.2-1.2 2.4-2.3 3.5-3.5 6.6-7.6 4.7-16.6-4.4-20.9-16.7-7.9-34.3-12.8-52.6-14.6-48.7-4.7-92.5 8-128.9 40.8-49 43.9-67.5 99.5-51.8 163.4 15.9 64.9 58.6 106.5 123.4 122.3 60.3 14.7 113.7-1.4 158.5-44.5 17.7-17 32.9-35.8 41.3-59.3 2.4-6.8 3.9-13.8 5.4-20.7 2.8-13.2 11.8-20.4 25.1-20.4h37c15.6 0 23.5 9.6 21.7 25.1-6.2 53-32.5 95.3-69.2 132.2-37.1 37.3-81.2 62.5-133 71-104.8 17-190.4-16.8-253.8-102.4C14.9 355.8.9 303.6 3.3 247.5 7.8 138.1 85.9 42.9 192.3 17 260.1.5 324.4 10.1 384.7 45.4c13.5 7.9 23.3 6.7 34.5-4.5 9.8-9.7 19.7-19.4 29.6-29.1 1-.9 1.9-1.9 2.9-2.7 5.9-4.8 12.5-7.4 19.9-3.8 7.2 3.5 10.5 9.8 10.5 17.9v160.5c0 8.3-4.3 12.5-12.7 12.5-27 .1-54 .1-81 .1z" fill="#ccc"/></svg>