<svg width="300" height="181" xmlns="http://www.w3.org/2000/svg" xmlns:xlink="http://www.w3.org/1999/xlink"><defs><path d="M102.624 98.072L198.621 7.21c8.836-8.364 23.163-8.364 32 0l15.999 15.144c8.836 8.363 8.836 21.923 0 30.287L118.624 173.79c-8.837 8.363-23.163 8.363-32 0L6.628 98.07c-8.836-8.363-8.836-21.923 0-30.286l16-15.144c8.836-8.364 23.162-8.364 31.999 0l47.998 45.43z" id="a"/></defs><g fill="none" fill-rule="evenodd"><path d="M149.124 98.072L245.121 7.21c8.836-8.364 23.163-8.364 32 0l15.999 15.144c8.836 8.363 8.836 21.923 0 30.287L165.124 173.79c-8.837 8.363-23.163 8.363-32 0L53.128 98.07c-8.836-8.363-8.836-21.923 0-30.286l16-15.144c8.836-8.364 23.162-8.364 31.999 0l47.998 45.43z" fill="#FFE500"/><use fill="#02BC2C" xlink:href="#a"/></g></svg>