<svg xmlns="http://www.w3.org/2000/svg" xmlns:xlink="http://www.w3.org/1999/xlink" width="229" height="100"><defs><path id="a" d="M125 482.5c0-15.188 12.312-27.5 27.5-27.5s27.5 12.312 27.5 27.5-12.312 27.5-27.5 27.5-27.5-12.312-27.5-27.5zm36.934-12.732c-1.86-1.845-4.124-2.768-6.791-2.768H142v31h14.418c3.018 0 5.362-.923 7.033-2.768 1.67-1.845 2.52-4.185 2.549-7.02 0-2.952-1.23-5.062-3.692-6.332.732-.62 1.318-1.432 1.758-2.436.44-1.004.66-1.978.66-2.923 0-2.657-.931-4.908-2.792-6.753z"/><path id="b" d="M244.263 520.44v34.218H266v-7.773h-13.062v-6.012h11.6V533.1h-11.6v-4.84h12.623v-7.821zm-34.824 30.258a18.17 18.17 0 0 0 5.58 3.202 18.8 18.8 0 0 0 6.385 1.1c2.567 0 4.955-.432 7.165-1.295 2.21-.864 4.167-2.347 5.873-4.449 1.706-2.102 2.753-4.684 3.143-7.748h-8.578c-.455 1.793-1.356 3.161-2.705 4.107-1.348.945-2.98 1.417-4.898 1.417-2.502-.032-4.54-.97-6.117-2.81-1.576-1.842-2.364-4.066-2.364-6.673 0-2.835.78-5.133 2.34-6.893 1.56-1.76 3.607-2.64 6.141-2.64 3.802 0 6.287 1.679 7.457 5.036h8.578c-.617-4.27-2.47-7.504-5.556-9.704-3.087-2.2-6.58-3.3-10.479-3.3a18.577 18.577 0 0 0-11.965 4.35c-1.674 1.403-3.014 3.244-4.021 5.525-1.008 2.281-1.511 4.823-1.511 7.626 0 2.802.503 5.344 1.51 7.626 1.008 2.28 2.348 4.122 4.022 5.523zm-12.16 4.019V520.44h-8.92v16.772l-17.253-16.919h-3.168v34.375h9.016v-16.82l17.205 16.869zm-54.978-11.83l3.85-9.004 3.948 9.004zm21.143 11.77v-1.27L148.047 520h-3.752l-15.348 33.387v1.27h8.526l1.998-4.3h13.448l1.998 4.3zm-57.356-34.217v34.218h21.153v-7.87h-12.38V520.44zM80.5 542.887l3.85-9.004 3.948 9.004zm21.143 11.77v-1.27L86.246 520h-3.752l-15.348 33.387v1.27h8.527l1.997-4.3h13.448l1.998 4.3zM54.23 529.63c.455.912.463 1.833.024 2.762-.438.929-1.21 1.393-2.315 1.393h-5.507v-5.524h5.459c1.104 0 1.884.456 2.339 1.369zm1.462 12.905c.455.978.463 1.947.025 2.908-.44.962-1.21 1.442-2.316 1.442h-6.97v-5.817h6.922c1.104 0 1.884.49 2.34 1.467zm4.411-19.04c-2.063-2.037-4.573-3.055-7.53-3.055H38v34.218h15.986c3.347 0 5.946-1.019 7.799-3.055 1.852-2.037 2.794-4.62 2.826-7.748 0-3.26-1.364-5.59-4.094-6.99.813-.685 1.462-1.581 1.95-2.689.487-1.108.73-2.183.73-3.226 0-2.933-1.03-5.418-3.094-7.455z"/></defs><use fill="#fff" xlink:href="#a" transform="translate(-38 -455)"/><use fill="#fff" xlink:href="#b" transform="translate(-38 -455)"/></svg>