<svg xmlns="http://www.w3.org/2000/svg" xmlns:xlink="http://www.w3.org/1999/xlink" width="150" height="24"><defs><path id="a" d="M215.167 342.291v22.656h14.245V359.8h-8.56v-3.981h7.602v-5.146h-7.601v-3.204h8.272v-5.179zm-22.82 20.034a11.878 11.878 0 0 0 3.657 2.12 12.2 12.2 0 0 0 4.184.728c1.682 0 3.247-.285 4.695-.857 1.448-.572 2.73-1.554 3.849-2.945 1.117-1.392 1.804-3.102 2.06-5.13h-5.622c-.298 1.186-.889 2.093-1.772 2.718-.884.626-1.954.939-3.21.939-1.64-.022-2.976-.642-4.009-1.861-1.032-1.22-1.549-2.692-1.549-4.418 0-1.877.511-3.398 1.533-4.563 1.022-1.166 2.364-1.748 4.025-1.748 2.491 0 4.12 1.111 4.887 3.334h5.62c-.404-2.827-1.617-4.969-3.64-6.425-2.023-1.456-4.312-2.185-6.867-2.185-1.448 0-2.843.248-4.184.745a12.144 12.144 0 0 0-3.657 2.136c-1.097.928-1.975 2.147-2.635 3.657-.66 1.51-.99 3.193-.99 5.05 0 1.855.33 3.538.99 5.048.66 1.51 1.538 2.73 2.635 3.657zm-7.97 2.654v-22.688h-5.844v11.102l-11.307-11.199h-2.076v22.753h5.91v-11.134l11.274 11.166zm-36.027-7.832l2.52-5.955 2.582 5.955zm13.862 7.8v-.842L152.119 342h-2.46l-10.06 22.105v.842h5.59l1.309-2.848h8.815l1.31 2.848zm-37.593-22.656v22.656h13.862v-5.21h-8.113V342.29zm-16.768 14.856l2.523-5.955 2.587 5.955zm13.862 7.8v-.842L111.62 342h-2.46L99.1 364.105v.842h5.59l1.309-2.848h8.815l1.31 2.848zm-31.086-16.569c.298.606.303 1.217.016 1.833-.287.617-.791.925-1.514.925h-3.603v-3.666h3.57c.724 0 1.234.303 1.531.908zm.967 8.545c.298.648.303 1.292.016 1.93-.288.638-.793.957-1.517.957h-4.567v-3.86h4.535c.724 0 1.235.324 1.533.973zm2.89-12.609c-1.352-1.348-2.996-2.023-4.934-2.023H80v22.656h10.476c2.193 0 3.897-.674 5.11-2.023 1.214-1.348 1.832-3.058 1.853-5.13 0-2.157-.894-3.7-2.683-4.628.532-.453.958-1.046 1.278-1.78.319-.734.479-1.446.479-2.136 0-1.942-.676-3.587-2.029-4.936z"/></defs><use fill="#fff" xlink:href="#a" transform="translate(-80 -342)"/></svg>