<?xml version="1.0" encoding="utf-8"?><svg xmlns="http://www.w3.org/2000/svg" xmlns:xlink="http://www.w3.org/1999/xlink"><symbol viewBox="0 0 12 7" id="arrow-down-big" xmlns="http://www.w3.org/2000/svg"><defs><path d="M494 295.568l4.278-4.273a1.01 1.01 0 0 1 1.427 0 1.006 1.006 0 0 1 0 1.424l-4.992 4.986a1.01 1.01 0 0 1-1.426 0l-4.992-4.986a1.006 1.006 0 0 1 0-1.424 1.01 1.01 0 0 1 1.427 0z" id="aaa"/></defs><use xlink:href="#aaa" transform="translate(-488 -291)"/></symbol><symbol viewBox="0 0 6 4" id="arrow-down-breadcrumb" xmlns="http://www.w3.org/2000/svg"><defs><path d="M7.547 8l2.265 2.023a.53.53 0 0 1 0 .81.696.696 0 0 1-.906 0L6.188 8.404a.53.53 0 0 1 0-.81l2.718-2.427a.696.696 0 0 1 .906 0 .53.53 0 0 1 0 .809L7.547 8z" id="aba"/></defs><use transform="rotate(-90 2.5 7.5)" xlink:href="#aba" fill-rule="evenodd"/></symbol><symbol viewBox="0 0 8 15" id="arrow-left-big" xmlns="http://www.w3.org/2000/svg"><defs><path d="M1.623 7.5l6.18 6.325a.7.7 0 0 1 0 .973.661.661 0 0 1-.95 0L.196 7.987a.7.7 0 0 1 0-.974L6.852.202a.661.661 0 0 1 .951 0 .7.7 0 0 1 0 .973L1.623 7.5z" id="aca"/></defs><use xlink:href="#aca" fill-rule="evenodd"/></symbol><symbol viewBox="0 0 29 18" id="arrow-left-long" xmlns="http://www.w3.org/2000/svg"><path d="M3.414 9.778l6.071 6.071a1 1 0 0 1-1.414 1.414L.293 9.485a1 1 0 0 1 0-1.414L8.07.293a1 1 0 1 1 1.414 1.414l-6.07 6.071h23.863a1 1 0 0 1 0 2H3.414z"/></symbol><symbol viewBox="0 0 7 11" id="arrow-left-small" xmlns="http://www.w3.org/2000/svg"><defs><path d="M2.707 5.5l3.965 3.71a1.003 1.003 0 0 1 0 1.483c-.438.41-1.148.41-1.586 0L.328 6.242a1.002 1.002 0 0 1 0-1.484L5.086.308a1.177 1.177 0 0 1 1.586 0 1.003 1.003 0 0 1 0 1.483L2.707 5.5z" id="aea"/></defs><use xlink:href="#aea" fill-rule="evenodd"/></symbol><symbol viewBox="0 0 8 15" id="arrow-right-big" xmlns="http://www.w3.org/2000/svg"><defs><path d="M1.623 7.5l6.18 6.325a.7.7 0 0 1 0 .973.661.661 0 0 1-.95 0L.196 7.987a.7.7 0 0 1 0-.974L6.852.202a.661.661 0 0 1 .951 0 .7.7 0 0 1 0 .973L1.623 7.5z" id="afa"/></defs><use transform="matrix(-1 0 0 1 8 0)" xlink:href="#afa" fill-rule="evenodd"/></symbol><symbol viewBox="0 0 7 11" id="arrow-right-small" xmlns="http://www.w3.org/2000/svg"><defs><path d="M2.707 5.5l3.965 3.71a1.003 1.003 0 0 1 0 1.483c-.438.41-1.148.41-1.586 0L.328 6.242a1.002 1.002 0 0 1 0-1.484L5.086.308a1.177 1.177 0 0 1 1.586 0 1.003 1.003 0 0 1 0 1.483L2.707 5.5z" id="aga"/></defs><use transform="matrix(-1 0 0 1 7 0)" xlink:href="#aga" fill-rule="evenodd"/></symbol><symbol viewBox="0 0 6 4" id="arrow-up-breadcrumb" xmlns="http://www.w3.org/2000/svg"><defs><path d="M7.547 8l2.265 2.023a.53.53 0 0 1 0 .81.696.696 0 0 1-.906 0L6.188 8.404a.53.53 0 0 1 0-.81l2.718-2.427a.696.696 0 0 1 .906 0 .53.53 0 0 1 0 .809L7.547 8z" id="aha"/></defs><use transform="matrix(0 1 1 0 -5 -6)" xlink:href="#aha" fill-rule="evenodd"/></symbol><symbol viewBox="0 0 6 12" id="arrow-vert-menu" xmlns="http://www.w3.org/2000/svg"><defs><path d="M1.217 6l4.635 5.06a.587.587 0 0 1 0 .779.475.475 0 0 1-.713 0L.148 6.389a.587.587 0 0 1 0-.778L5.139.16a.475.475 0 0 1 .713 0 .587.587 0 0 1 0 .779L1.217 6z" id="aia"/></defs><use xlink:href="#aia" transform="matrix(-1 0 0 1 6 0)" fill-rule="evenodd"/></symbol><symbol viewBox="0 0 6 12" id="arrow-vert-menu-hover" xmlns="http://www.w3.org/2000/svg"><defs><path d="M251.82 1432.721l-6-6.5v13z" id="aja"/></defs><use xlink:href="#aja" transform="translate(-246 -1427)"/></symbol><symbol viewBox="0 0 8 8" id="arrow-x" xmlns="http://www.w3.org/2000/svg"><defs><path id="aka" d="M4 3.273L7.273 0 8 .727 4.727 4 8 7.273 7.273 8 4 4.727.727 8 0 7.273 3.273 4 0 .727.727 0z"/></defs><use xlink:href="#aka" fill-rule="evenodd"/></symbol><symbol viewBox="0 0 50 50" id="bg-quote" xmlns="http://www.w3.org/2000/svg"><path d="M43.68 41.614c1.446 1.676 3.553 3.053 6.32 4.131-5.044.358-8.696.339-10.958-.058A24.884 24.884 0 0 1 25 50C11.193 50 0 38.807 0 25S11.193 0 25 0s25 11.193 25 25a24.906 24.906 0 0 1-6.32 16.614z" fill-rule="evenodd"/></symbol><symbol viewBox="0 0 13 3" id="dots-more" xmlns="http://www.w3.org/2000/svg"><path d="M1.5 3a1.5 1.5 0 1 1 0-3 1.5 1.5 0 0 1 0 3zm5 0a1.5 1.5 0 1 1 0-3 1.5 1.5 0 0 1 0 3zm5 0a1.5 1.5 0 1 1 0-3 1.5 1.5 0 0 1 0 3z" fill-rule="evenodd"/></symbol><symbol viewBox="0 0 8 10" id="icon-arrow-up" xmlns="http://www.w3.org/2000/svg"><path d="M3.03 1.936L.706 4.258 0 3.551 2.84.711 2.836.707 3.543 0 7.08 3.536l-.707.707L4.029 1.9v7.141h-1z"/></symbol><symbol viewBox="0 0 16 10" id="icon-blog-menu" xmlns="http://www.w3.org/2000/svg"><defs><path d="M0 .317h16v1.561H0V.318zM3.902 4.22H16v1.56H3.902V4.22zm3.903 3.902H16v1.56H7.805v-1.56z" id="aoa"/></defs><use xlink:href="#aoa" transform="matrix(-1 0 0 1 16 0)" fill-rule="evenodd"/></symbol><symbol viewBox="0 0 15 14" id="icon-bubble" xmlns="http://www.w3.org/2000/svg"><defs><path d="M10.785 14a.575.575 0 0 1-.372-.134l-3.896-3.275H1.404C.634 10.591 0 9.93 0 9.123v-7.68C0 .641.634 0 1.404 0h12.188C14.37 0 15 .64 15 1.443v7.68c0 .807-.63 1.468-1.408 1.468h-2.227v2.81a.598.598 0 0 1-.332.542.562.562 0 0 1-.248.057zM1.404 1.197c-.124 0-.225.104-.225.246v7.68c0 .144.103.271.225.271h5.323c.135 0 .265.045.37.133l3.098 2.606V9.987a.59.59 0 0 1 .59-.593h2.807c.125 0 .238-.132.238-.27v-7.68a.244.244 0 0 0-.238-.247H1.404z" id="apa"/></defs><use xlink:href="#apa"/></symbol><symbol viewBox="0 0 19 17" id="icon-busket" xmlns="http://www.w3.org/2000/svg"><defs><path d="M18.365 3.229c.283 0 .444.22.36.489l-1.488 5.115a.738.738 0 0 1-.663.488h-7.07a.739.739 0 0 1-.664-.488L7.134 3.836c-.104-.336.096-.607.447-.607h10.784zm-1.046 7.734a.913.913 0 1 1 0 1.827H8.008a2 2 0 0 1-1.89-1.344l-3.31-9.524H1.167a.913.913 0 1 1 0-1.827h1.518a2 2 0 0 1 1.89 1.344l3.31 9.524h9.434zm-8.763 5.729a1.613 1.613 0 1 1 0-3.227 1.613 1.613 0 0 1 0 3.227zm6.826.02a1.613 1.613 0 1 1 0-3.226 1.613 1.613 0 0 1 0 3.226z" id="aqa"/></defs><use xlink:href="#aqa"/></symbol><symbol viewBox="0 0 16 16" id="icon-cal" xmlns="http://www.w3.org/2000/svg"><defs><path d="M14.667 1.5H12.5v-1a.5.5 0 1 0-1 0v1h-3v-1a.5.5 0 1 0-1 0v1h-3v-1a.5.5 0 1 0-1 0v1H1.333C.597 1.5 0 2.096 0 2.833v11.833C0 15.403.597 16 1.333 16h13.334c.736 0 1.333-.597 1.333-1.334V2.833c0-.737-.597-1.333-1.333-1.333zM15 14.666c0 .184-.15.334-.333.334H1.333A.334.334 0 0 1 1 14.666V2.833c0-.183.15-.333.333-.333H3.5v1a.5.5 0 1 0 1 0v-1h3v1a.5.5 0 1 0 1 0v-1h3v1a.5.5 0 1 0 1 0v-1h2.167c.184 0 .333.15.333.333v11.833zM3.5 6h2v1.5h-2V6zm0 2.5h2V10h-2V8.5zm0 2.5h2v1.5h-2V11zM7 11h2v1.5H7V11zm0-2.5h2V10H7V8.5zM7 6h2v1.5H7V6zm3.5 5h2v1.5h-2V11zm0-2.5h2V10h-2V8.5zm0-2.5h2v1.5h-2V6z" id="ara"/></defs><use xlink:href="#ara"/></symbol><symbol viewBox="0 0 40 40" id="icon-calendar" xmlns="http://www.w3.org/2000/svg"><defs><path d="M36.667 3.75H31.25v-2.5a1.249 1.249 0 1 0-2.5 0v2.5h-7.5v-2.5a1.25 1.25 0 1 0-2.5 0v2.5h-7.5v-2.5a1.25 1.25 0 1 0-2.5 0v2.5H3.334A3.333 3.333 0 0 0 0 7.082v29.584A3.334 3.334 0 0 0 3.334 40h33.333A3.333 3.333 0 0 0 40 36.666V7.083a3.332 3.332 0 0 0-3.333-3.333zm.833 32.916c0 .46-.374.834-.833.834H3.334a.834.834 0 0 1-.834-.834V7.083c0-.46.374-.833.834-.833H8.75v2.5a1.25 1.25 0 1 0 2.5 0v-2.5h7.5v2.5a1.25 1.25 0 1 0 2.5 0v-2.5h7.5v2.5a1.249 1.249 0 1 0 2.5 0v-2.5h5.417c.46 0 .833.374.833.832v29.584zM8.75 15h5v3.75h-5V15zm0 6.25h5V25h-5v-3.75zm0 6.25h5v3.75h-5V27.5zm8.75 0h5v3.75h-5V27.5zm0-6.25h5V25h-5v-3.75zm0-6.25h5v3.75h-5V15zm8.75 12.5h5v3.75h-5V27.5zm0-6.25h5V25h-5v-3.75zm0-6.25h5v3.75h-5V15z" id="asa"/></defs><use xlink:href="#asa"/></symbol><symbol viewBox="0 0 16 16" id="icon-calendar-2" xmlns="http://www.w3.org/2000/svg"><path d="M14.222 1.6h-.889V0h-1.777v1.6H4.444V0H2.667v1.6h-.89C.8 1.6 0 2.32 0 3.2v11.2c0 .88.8 1.6 1.778 1.6h12.444C15.2 16 16 15.28 16 14.4V3.2c0-.88-.8-1.6-1.778-1.6zm0 12.8H1.778V5.6h12.444v8.8z"/></symbol><symbol viewBox="0 0 40 40" id="icon-calendar-small" xmlns="http://www.w3.org/2000/svg"><defs><path d="M36.667 3.75H31.25v-2.5a1.249 1.249 0 1 0-2.5 0v2.5h-7.5v-2.5a1.25 1.25 0 1 0-2.5 0v2.5h-7.5v-2.5a1.25 1.25 0 1 0-2.5 0v2.5H3.334A3.333 3.333 0 0 0 0 7.082v29.584A3.334 3.334 0 0 0 3.334 40h33.333A3.333 3.333 0 0 0 40 36.666V7.083a3.332 3.332 0 0 0-3.333-3.333zm.833 32.916c0 .46-.374.834-.833.834H3.334a.834.834 0 0 1-.834-.834V7.083c0-.46.374-.833.834-.833H8.75v2.5a1.25 1.25 0 1 0 2.5 0v-2.5h7.5v2.5a1.25 1.25 0 1 0 2.5 0v-2.5h7.5v2.5a1.249 1.249 0 1 0 2.5 0v-2.5h5.417c.46 0 .833.374.833.832v29.584zM8.75 15h5v3.75h-5V15zm0 6.25h5V25h-5v-3.75zm0 6.25h5v3.75h-5V27.5zm8.75 0h5v3.75h-5V27.5zm0-6.25h5V25h-5v-3.75zm0-6.25h5v3.75h-5V15zm8.75 12.5h5v3.75h-5V27.5zm0-6.25h5V25h-5v-3.75zm0-6.25h5v3.75h-5V15z" id="aua"/></defs><use xlink:href="#aua"/></symbol><symbol viewBox="0 0 44 33" id="icon-camera" xmlns="http://www.w3.org/2000/svg"><path d="M41 33H3c-1.7 0-3-1.3-3-3V8c0-1.7 1.3-3 3-3h8.7c.4 0 .7-.2.9-.5l.9-1.9c.4-1 1.5-1.7 2.7-1.7h11.5c1.2 0 2.3.7 2.7 1.7l.9 1.7c.2.3.5.5.9.5H41c1.7 0 3 1.3 3 3v22c0 1.9-1.3 3.2-3 3.2zM3 7c-.6 0-1 .4-1 1v22c0 .6.4 1 1 1h38c.6 0 1-.4 1-1V8c0-.6-.4-1-1-1h-8.8c-1.1 0-2.1-.6-2.7-1.6l-.9-1.8c-.2-.4-.5-.5-.9-.5H16.2c-.4 0-.7.2-.9.5l-.9 1.9c-.4 1-1.5 1.7-2.7 1.7H3V7z"/><path d="M22 29c-5.5 0-10-4.5-10-10S16.5 9 22 9s10 4.5 10 10-4.5 10-10 10zm0-18c-4.4 0-8 3.6-8 8s3.6 8 8 8 8-3.6 8-8-3.6-8-8-8z"/></symbol><symbol viewBox="0 0 21 18" id="icon-camera-2" xmlns="http://www.w3.org/2000/svg"><path d="M18.2 2.769c.774 0 1.434.27 1.981.812.546.542.82 1.193.819 1.958v9.693a2.65 2.65 0 0 1-.82 1.957 2.712 2.712 0 0 1-1.98.81H2.8a2.712 2.712 0 0 1-1.98-.81A2.649 2.649 0 0 1 0 15.232V5.539c0-.765.273-1.417.82-1.958a2.714 2.714 0 0 1 1.98-.812h1.134c.793 0 1.503-.494 1.787-1.241l.087-.23c.14-.353.392-.658.76-.914C6.937.128 7.314 0 7.701 0h5.6c.387 0 .763.128 1.132.384.368.256.621.56.76.915l.088.229c.287.75.997 1.243 1.786 1.24H18.2zM10.5 15.23c1.35 0 2.502-.475 3.461-1.423.96-.948 1.44-2.09 1.439-3.424 0-1.333-.479-2.474-1.439-3.423-.958-.948-2.112-1.421-3.461-1.421-1.35 0-2.502.472-3.461 1.421-.96.949-1.439 2.09-1.439 3.423 0 1.335.479 2.477 1.439 3.424.959.948 2.112 1.423 3.461 1.423zM8.274 8.183a3.052 3.052 0 0 1 2.226-.914c.868 0 1.61.304 2.226.914.616.61.924 1.343.924 2.201 0 .858-.307 1.592-.924 2.2a3.05 3.05 0 0 1-2.226.915 3.052 3.052 0 0 1-2.226-.914 2.983 2.983 0 0 1-.924-2.2c0-.859.308-1.593.924-2.202z"/></symbol><symbol viewBox="0 0 16 16" id="icon-card" xmlns="http://www.w3.org/2000/svg"><defs><path d="M0 0h4v4H0V0zm0 6h4v4H0V6zm0 6h4v4H0v-4zM6 0h4v4H6V0zm0 6h4v4H6V6zm0 6h4v4H6v-4zm6-12h4v4h-4V0zm0 6h4v4h-4V6zm0 6h4v4h-4v-4z" id="axa"/></defs><use xlink:href="#axa" fill-rule="evenodd"/></symbol><symbol viewBox="0 0 19 17" id="icon-cart" xmlns="http://www.w3.org/2000/svg"><defs><path d="M18.365 3.229c.283 0 .444.22.36.489l-1.488 5.115a.738.738 0 0 1-.663.488h-7.07a.739.739 0 0 1-.664-.488L7.134 3.836c-.104-.336.096-.607.447-.607h10.784zm-1.046 7.734a.913.913 0 1 1 0 1.827H8.008a2 2 0 0 1-1.89-1.344l-3.31-9.524H1.167a.913.913 0 1 1 0-1.827h1.518a2 2 0 0 1 1.89 1.344l3.31 9.524h9.434zm-8.763 5.729a1.613 1.613 0 1 1 0-3.227 1.613 1.613 0 0 1 0 3.227zm6.826.02a1.613 1.613 0 1 1 0-3.226 1.613 1.613 0 0 1 0 3.226z" id="aya"/></defs><use xlink:href="#aya"/></symbol><symbol viewBox="0 0 20 20" id="icon-cart-2" xmlns="http://www.w3.org/2000/svg"><defs><path d="M15.392 18.125a.86.86 0 0 1 0-1.718.86.86 0 0 1 0 1.718zm-8.438 0a.86.86 0 0 1 0-1.718c.474 0 .86.386.86.86a.861.861 0 0 1-.86.858zM4.634 5h13.185l-1.65 5.782H6.058L5.19 7.279 4.634 5zm1.887 7.657h10.354a.937.937 0 0 0 .902-.68l2.186-7.657a.934.934 0 0 0-.9-1.195h-14.9L3.569.713A.939.939 0 0 0 2.656 0H.938a.938.938 0 0 0 0 1.875h.986l1.446 5.85 1.033 4.218c.005.019.017.034.023.054l.787 3.18a2.716 2.716 0 0 0-.994 2.09A2.738 2.738 0 0 0 6.954 20a2.738 2.738 0 0 0 2.735-2.734c0-.303-.061-.59-.153-.86h3.273a2.686 2.686 0 0 0-.152.86A2.738 2.738 0 0 0 15.392 20a2.738 2.738 0 0 0 2.735-2.734 2.738 2.738 0 0 0-2.735-2.735c-.018 0-.034.005-.053.005-.009 0-.016-.005-.025-.005H7.033c-.01 0-.018.005-.027.005l-.02-.002-.465-1.878z" id="aza"/></defs><use xlink:href="#aza" fill-rule="evenodd"/></symbol><symbol viewBox="0 0 16 12" id="icon-catalog-hamburger" xmlns="http://www.w3.org/2000/svg"><defs><path d="M1 0h14a1 1 0 0 1 0 2H1a1 1 0 1 1 0-2zm3 5h8a1 1 0 0 1 0 2H4a1 1 0 1 1 0-2zm-3 5h14a1 1 0 0 1 0 2H1a1 1 0 0 1 0-2z" id="baa"/></defs><use transform="matrix(-1 0 0 1 16 0)" xlink:href="#baa" fill-rule="evenodd"/></symbol><symbol viewBox="0 0 10 10" id="icon-catalog-mob" xmlns="http://www.w3.org/2000/svg"><defs><path id="bba" d="M312 280a1 1 0 0 1 1-1h2a1 1 0 0 1 1 1v2a1 1 0 0 1-1 1h-2a1 1 0 0 1-1-1zm0 6a1 1 0 0 1 1-1h2a1 1 0 0 1 1 1v2a1 1 0 0 1-1 1h-2a1 1 0 0 1-1-1zm6-6a1 1 0 0 1 1-1h2a1 1 0 0 1 1 1v2a1 1 0 0 1-1 1h-2a1 1 0 0 1-1-1zm0 6a1 1 0 0 1 1-1h2a1 1 0 0 1 1 1v2a1 1 0 0 1-1 1h-2a1 1 0 0 1-1-1z"/></defs><use xlink:href="#bba" transform="translate(-312 -279)"/></symbol><symbol viewBox="0 0 16 16" id="icon-chart" xmlns="http://www.w3.org/2000/svg"><defs><path d="M1.03 0c.569 0 1.03.461 1.03 1.03v13.94a1.03 1.03 0 1 1-2.06 0V1.03C0 .46.461 0 1.03 0zm4.647 4.444c.568 0 1.03.462 1.03 1.03v9.496a1.03 1.03 0 1 1-2.06 0V5.474c0-.568.46-1.03 1.03-1.03zm4.646 4.445c.57 0 1.03.461 1.03 1.03v5.051a1.03 1.03 0 1 1-2.06 0V9.92c0-.569.462-1.03 1.03-1.03zM14.97 5c.57 0 1.03.461 1.03 1.03v8.94a1.03 1.03 0 1 1-2.06 0V6.03c0-.569.461-1.03 1.03-1.03z" id="bca"/></defs><use xlink:href="#bca" fill-rule="evenodd"/></symbol><symbol viewBox="0 0 28 20" id="icon-check" xmlns="http://www.w3.org/2000/svg"><defs><path d="M23.369 2.203L11.347 13.694 4.63 7.276a.552.552 0 0 0-.72 0l-1.77 1.69c-.123.118-.123.26 0 .377l8.845 8.454a.552.552 0 0 0 .721 0L25.86 4.27c.123-.117.123-.259 0-.376l-1.77-1.691a.552.552 0 0 0-.72 0zm-12.022 8.642L21.96.7a2.584 2.584 0 0 1 3.538 0l1.77 1.691a2.317 2.317 0 0 1 0 3.382L13.115 19.3a2.584 2.584 0 0 1-3.538 0L.733 10.845a2.317 2.317 0 0 1 0-3.381l1.769-1.691a2.584 2.584 0 0 1 3.538 0l5.307 5.072z" id="bda"/></defs><use xlink:href="#bda"/></symbol><symbol viewBox="0 0 16 16" id="icon-clock" xmlns="http://www.w3.org/2000/svg"><defs><path d="M10.293 11.707L7 8.414V4h2v3.586l2.707 2.707-1.414 1.414zM8 0a8 8 0 1 0 0 16A8 8 0 0 0 8 0zm0 14A6 6 0 1 1 8 2a6 6 0 0 1 0 12z" id="bea"/></defs><use xlink:href="#bea"/></symbol><symbol viewBox="0 0 30 30" id="icon-clock-small" xmlns="http://www.w3.org/2000/svg"><defs><path d="M19.3 21.95l-6.175-6.173V7.5h3.75v6.723l5.076 5.076-2.652 2.652zM15 0C6.716 0 0 6.716 0 15c0 8.284 6.716 15 15 15 8.284 0 15-6.716 15-15 0-8.284-6.716-15-15-15zm0 26.25C8.787 26.25 3.75 21.213 3.75 15S8.787 3.75 15 3.75 26.25 8.787 26.25 15 21.213 26.25 15 26.25z" id="bfa"/></defs><use xlink:href="#bfa"/></symbol><symbol viewBox="0 0 10 10" id="icon-close" xmlns="http://www.w3.org/2000/svg"><defs><path id="bga" d="M5 4.09L9.09 0l.91.91L5.91 5 10 9.09l-.91.91L5 5.91.91 10 0 9.09 4.09 5 0 .91.91 0z"/></defs><use xlink:href="#bga" fill-rule="evenodd"/></symbol><symbol viewBox="0 0 16 16" id="icon-compass" xmlns="http://www.w3.org/2000/svg"><defs><path d="M8 1.5A6.507 6.507 0 0 0 1.5 8c0 3.584 2.916 6.5 6.5 6.5s6.5-2.916 6.5-6.5S11.584 1.5 8 1.5M8 16c-4.412 0-8-3.588-8-8s3.588-8 8-8 8 3.588 8 8-3.588 8-8 8M6.49 6.489l-1.135 4.155L9.51 9.51l1.133-4.154-4.154 1.133zm-2.204 5.974a.752.752 0 0 1-.724-.948L5.155 5.68a.754.754 0 0 1 .526-.526l5.833-1.592a.75.75 0 0 1 .92.92l-1.588 5.836a.749.749 0 0 1-.526.527l-5.837 1.59a.742.742 0 0 1-.197.027zm4.707-4.46a.996.996 0 1 1-1.993 0 .996.996 0 0 1 1.993 0" id="bha"/></defs><use xlink:href="#bha" fill-rule="evenodd"/></symbol><symbol viewBox="0 0 16 16" id="icon-currency" xmlns="http://www.w3.org/2000/svg"><defs><path d="M8 1.5A6.507 6.507 0 0 0 1.5 8c0 3.584 2.916 6.5 6.5 6.5s6.5-2.916 6.5-6.5S11.584 1.5 8 1.5M8 16c-4.412 0-8-3.588-8-8s3.588-8 8-8 8 3.588 8 8-3.588 8-8 8m2.832-6.599c0 .558-.186 1.032-.557 1.421-.37.39-.87.639-1.5.75v1.167H7.563v-1.126c-.913-.09-1.645-.359-2.195-.806l.507-1.158a3.456 3.456 0 0 0 1.798.713v-1.86a7.015 7.015 0 0 1-1.133-.403 2.047 2.047 0 0 1-.77-.636c-.208-.279-.312-.65-.312-1.11 0-.559.193-1.04.58-1.443.388-.403.896-.66 1.525-.77V2.984h1.212V4.13c.378.055.735.15 1.073.284.338.135.613.302.825.502l-.507 1.157c-.477-.358-.973-.585-1.49-.682v1.922c.437.11.805.236 1.103.378.298.14.548.35.75.625.202.275.303.637.303 1.085zM7.007 6.249c0 .186.058.34.174.46.116.12.28.222.492.305V5.422a.966.966 0 0 0-.492.305.796.796 0 0 0-.174.522zm1.669 4.03c.404-.124.606-.392.606-.806a.552.552 0 0 0-.154-.398 1.33 1.33 0 0 0-.452-.284v1.488z" id="bia"/></defs><use xlink:href="#bia" fill-rule="evenodd"/></symbol><symbol viewBox="0 0 11 7" id="icon-down-arrow" xmlns="http://www.w3.org/2000/svg"><defs><path d="M2.707 5.5l3.965 3.71a1.003 1.003 0 0 1 0 1.483c-.438.41-1.148.41-1.586 0L.328 6.242a1.002 1.002 0 0 1 0-1.484L5.086.308a1.177 1.177 0 0 1 1.586 0 1.003 1.003 0 0 1 0 1.483L2.707 5.5z" id="bja"/></defs><use xlink:href="#bja" transform="matrix(0 -1 -1 0 11 7)" fill-rule="evenodd"/></symbol><symbol viewBox="0 0 7 4" id="icon-down-btn" xmlns="http://www.w3.org/2000/svg"><defs><path d="M3.5 2.739L6.102.153a.528.528 0 0 1 .744 0 .52.52 0 0 1 0 .739L3.872 3.847a.528.528 0 0 1-.744 0L.154.892a.52.52 0 0 1 0-.739.528.528 0 0 1 .744 0L3.5 2.739z" id="bka"/></defs><use xlink:href="#bka" fill-rule="evenodd"/></symbol><symbol viewBox="0 0 7 4" id="icon-down-solid" xmlns="http://www.w3.org/2000/svg"><defs><path d="M276.5 125l3.5 4h-7z" id="bla"/></defs><use xlink:href="#bla" transform="translate(-273 -125)"/></symbol><symbol viewBox="0 0 14 14" id="icon-econom" xmlns="http://www.w3.org/2000/svg"><defs><path d="M12.687 6.072l-6.343 6.344-4.76-4.76 6.344-6.343h3.394l1.365 1.365v3.394zm1.12-4.13l-1.75-1.75A.656.656 0 0 0 11.594 0H7.656a.656.656 0 0 0-.464.192l-7 7a.656.656 0 0 0 0 .928l5.688 5.688a.655.655 0 0 0 .927 0l7-7A.655.655 0 0 0 14 6.344V2.406a.655.655 0 0 0-.193-.464zm-4.4 3.311a.658.658 0 0 1-.657-.656.657.657 0 0 1 1.312 0 .658.658 0 0 1-.656.656m0-2.625a1.972 1.972 0 0 0-1.969 1.969c0 1.085.884 1.969 1.97 1.969a1.972 1.972 0 0 0 1.968-1.97 1.972 1.972 0 0 0-1.969-1.968" id="bma"/></defs><use xlink:href="#bma" fill-rule="evenodd"/></symbol><symbol viewBox="0 0 19 18" id="icon-edit" xmlns="http://www.w3.org/2000/svg"><path d="M.2 14.2V18H4L15 6.9l-3.8-3.8-11 11.1zM17.9 4c.4-.4.4-1 0-1.4L15.6.3c-.4-.4-1-.4-1.4 0l-1.8 1.8 3.8 3.8L17.9 4z"/></symbol><symbol viewBox="0 0 26 17" id="icon-envelope" xmlns="http://www.w3.org/2000/svg"><defs><path d="M2.084 0h21.832C25.075 0 26 .92 26 2.055v12.378c0 1.133-.933 2.055-2.084 2.055H2.084A2.065 2.065 0 0 1 0 14.433V2.055C0 .922.933 0 2.084 0zm20.745 13.124l-6.178-5.197 6.178-5.198-.842-.827L13 9.462l-8.987-7.56-.842.827 6.178 5.198-6.178 5.197.842.827 6.249-5.256L13 10.998l2.738-2.303 6.249 5.256.842-.827z" id="boa"/></defs><use xlink:href="#boa" transform="translate(0 .073)"/></symbol><symbol viewBox="0 0 16 12" id="icon-eye" xmlns="http://www.w3.org/2000/svg"><defs><path d="M7.998 10.435h-.001c-3.321 0-5.661-3.3-6.367-4.434.706-1.136 3.046-4.436 6.368-4.436 3.326 0 5.667 3.302 6.373 4.437-.703 1.135-3.034 4.432-6.373 4.433m7.909-4.811C15.786 5.394 12.888 0 7.998 0 3.112 0 .214 5.394.093 5.624a.81.81 0 0 0 0 .753C.214 6.607 3.111 12 7.997 12h.001c4.89-.001 7.788-5.393 7.909-5.623a.81.81 0 0 0 0-.753M7.998 7.827c-.965 0-1.75-.82-1.75-1.826 0-1.008.785-1.827 1.75-1.827s1.75.82 1.75 1.827c0 1.007-.785 1.826-1.75 1.826m0-5.218c-1.792 0-3.25 1.521-3.25 3.392 0 1.87 1.458 3.391 3.25 3.391s3.25-1.521 3.25-3.391-1.458-3.392-3.25-3.392" id="bpa"/></defs><use xlink:href="#bpa" fill-rule="evenodd"/></symbol><symbol viewBox="0 0 7 16" id="icon-fb" xmlns="http://www.w3.org/2000/svg"><path d="M4.073.04C2.737.224 1.87 1.086 1.577 2.514c-.055.275-.072.528-.086 1.493l-.02 1.167-.727.008-.727.01-.01 1.402L0 8h1.48v8h3.134V8h2.1l.014-.084c.01-.044.065-.602.124-1.237a175.5 175.5 0 0 1 .127-1.332L7 5.174H4.61l.01-.965c.011-1.093.028-1.163.28-1.34l.137-.098.961-.011.957-.011V0L5.623.004C4.886.007 4.19.022 4.073.04z"/></symbol><symbol viewBox="0 0 7 16" id="icon-fb-sk" xmlns="http://www.w3.org/2000/svg"><path d="M4.073.04C2.737.224 1.87 1.086 1.577 2.514c-.055.275-.072.528-.086 1.493l-.02 1.167-.727.008-.727.01-.01 1.402L0 8h1.48v8h3.134V8h2.1l.014-.084c.01-.044.065-.602.124-1.237a175.5 175.5 0 0 1 .127-1.332L7 5.174H4.61l.01-.965c.011-1.093.028-1.163.28-1.34l.137-.098.961-.011.957-.011V0L5.623.004C4.886.007 4.19.022 4.073.04z"/></symbol><symbol viewBox="0 0 16 16" id="icon-filter" xmlns="http://www.w3.org/2000/svg"><path d="M15.92.443c.13.31.076.576-.158.796L10.176 6.84v8.432c0 .318-.148.541-.442.67A.786.786 0 0 1 9.45 16a.672.672 0 0 1-.51-.216l-2.9-2.909a.7.7 0 0 1-.216-.511V6.84L.238 1.239C.004 1.019-.049.754.079.443.208.148.431 0 .748 0h14.504c.317 0 .54.148.669.443z" fill-rule="evenodd"/></symbol><symbol viewBox="0 0 20 11" id="icon-gp" xmlns="http://www.w3.org/2000/svg"><path d="M5.833 4.714V6.6h3.309c-.134.809-1 2.373-3.309 2.373-1.991 0-3.616-1.555-3.616-3.473 0-1.917 1.625-3.473 3.616-3.473 1.134 0 1.892.456 2.325.849l1.584-1.438C8.725.542 7.408 0 5.833 0 2.608 0 0 2.46 0 5.5S2.608 11 5.833 11c3.367 0 5.601-2.231 5.601-5.374 0-.362-.042-.637-.092-.912H5.833zM17.5 6.286v2.357h-1.667V6.286h-2.5V4.714h2.5V2.357H17.5v2.357H20v1.572h-2.5z"/></symbol><symbol viewBox="0 0 12 16" id="icon-gps" xmlns="http://www.w3.org/2000/svg"><defs><path d="M5.852 4.662c-.694 0-1.19.595-1.19 1.29 0 .694.496 1.19 1.19 1.19.695 0 1.29-.496 1.29-1.19 0-.695-.595-1.29-1.29-1.29zm0 3.968a2.667 2.667 0 0 1-2.678-2.678c0-1.488 1.19-2.778 2.678-2.778A2.773 2.773 0 0 1 8.63 5.952c0 1.587-1.29 2.678-2.778 2.678zm5.853-2.678c0 4.563-5.059 9.522-5.357 9.72a.752.752 0 0 1-.496.199.758.758 0 0 1-.496-.198C5.158 15.474 0 10.515 0 5.952 0 2.678 2.579 0 5.852 0 7.44 0 8.927.694 10.02 1.785c1.09 1.092 1.686 2.58 1.686 4.167zM5.852 1.488c-1.19 0-2.281.496-3.075 1.29-.892.892-1.29 1.983-1.29 3.174 0 3.174 3.076 6.745 4.365 8.133 1.29-1.289 4.365-4.96 4.365-8.133 0-1.19-.397-2.282-1.29-3.175-.892-.892-1.884-1.29-3.075-1.29z" id="bua"/></defs><use xlink:href="#bua" fill-rule="evenodd"/></symbol><symbol viewBox="0 0 16 12" id="icon-hamburger" xmlns="http://www.w3.org/2000/svg"><defs><path d="M1 0h14a1 1 0 0 1 0 2H1a1 1 0 1 1 0-2zm3 5h8a1 1 0 0 1 0 2H4a1 1 0 1 1 0-2zm-3 5h14a1 1 0 0 1 0 2H1a1 1 0 0 1 0-2z" id="bva"/></defs><use transform="matrix(-1 0 0 1 16 0)" xlink:href="#bva" fill-rule="evenodd"/></symbol><symbol viewBox="0 0 16 14" id="icon-heart" xmlns="http://www.w3.org/2000/svg"><defs><path d="M11.52 1.556c1.6 0 2.88 1.244 2.88 2.8 0 1.555-3.12 4.977-6.4 7.622-3.28-2.722-6.4-6.145-6.4-7.622 0-1.556 1.28-2.8 2.88-2.8C6.4 1.556 8 3.889 8 3.889s1.52-2.333 3.52-2.333zm0-1.556C10.08 0 8.8.7 8 1.789A4.358 4.358 0 0 0 4.48 0C2 0 0 1.944 0 4.356 0 7.778 8 14 8 14s8-6.222 8-9.644C16 1.944 14 0 11.52 0z" id="bwa"/></defs><use xlink:href="#bwa"/></symbol><symbol viewBox="0 0 16 14" id="icon-heart-2" xmlns="http://www.w3.org/2000/svg"><path d="M8 13.103a47.981 47.981 0 0 0 3.507-3.14 27.434 27.434 0 0 0 2.113-2.319c1.09-1.366 1.68-2.512 1.68-3.288C15.3 2.336 13.618.7 11.52.7c-1.18 0-2.265.563-2.956 1.503L8 2.971l-.564-.768A3.657 3.657 0 0 0 4.48.7C2.382.7.7 2.336.7 4.356c0 .776.59 1.922 1.68 3.288.587.735 1.3 1.514 2.113 2.32a47.981 47.981 0 0 0 2.71 2.477c.286.242.553.464.797.662z" fill-rule="evenodd"/></symbol><symbol viewBox="0 0 16 14" id="icon-heart-new" xmlns="http://www.w3.org/2000/svg"><path d="M8 12.974a47.883 47.883 0 0 0 3.437-3.081 27.55 27.55 0 0 0 2.104-2.31C14.62 6.231 15.2 5.102 15.2 4.355 15.2 2.39 13.563.8 11.52.8a3.557 3.557 0 0 0-2.875 1.463L8 3.14l-.645-.877A3.557 3.557 0 0 0 4.48.8C2.437.8.8 2.391.8 4.356c0 .747.581 1.876 1.659 3.226a27.337 27.337 0 0 0 2.104 2.311A47.883 47.883 0 0 0 8 12.974z"/></symbol><symbol viewBox="0 0 20 20" id="icon-home" xmlns="http://www.w3.org/2000/svg"><defs><path d="M8 10.91v8.18c0 .503-.448.91-1 .91s-1-.407-1-.91V10c0-.502.448-.91 1-.91h6c.552 0 1 .408 1 .91v9.09c0 .503-.448.91-1 .91s-1-.407-1-.91v-8.18H8zm-6 7.272h16V7.717L10 2.44 2 7.717v10.465zm-2 .909V7.273c0-.28.142-.546.386-.718l9-6.364a1.08 1.08 0 0 1 1.228 0l9 6.364a.882.882 0 0 1 .386.718V19.09c0 .502-.448.909-1 .909H1c-.552 0-1-.407-1-.91z" id="bza"/></defs><use xlink:href="#bza"/></symbol><symbol viewBox="0 0 12 12" id="icon-home-breadcrumb" xmlns="http://www.w3.org/2000/svg"><defs><path d="M4.8 6.545v4.91c0 .3-.269.545-.6.545-.331 0-.6-.244-.6-.545V6c0-.301.269-.545.6-.545h3.6c.331 0 .6.244.6.545v5.455c0 .3-.269.545-.6.545-.331 0-.6-.244-.6-.545v-4.91H4.8zM1.2 10.91h9.6V4.63L6 1.463 1.2 4.63v6.28zm-1.2.546V4.364a.53.53 0 0 1 .232-.43l5.4-3.82a.648.648 0 0 1 .736 0l5.4 3.82a.53.53 0 0 1 .232.43v7.09c0 .302-.269.546-.6.546H.6c-.331 0-.6-.244-.6-.545z" id="caa"/></defs><use xlink:href="#caa"/></symbol><symbol viewBox="0 0 26 26" id="icon-info" xmlns="http://www.w3.org/2000/svg"><path fill-rule="evenodd" clip-rule="evenodd" d="M11.7 19.5h2.6v-7.8h-2.6v7.8zM13 0C5.85 0 0 5.85 0 13s5.85 13 13 13 13-5.85 13-13S20.15 0 13 0zm0 23.4C7.28 23.4 2.6 18.72 2.6 13 2.6 7.28 7.28 2.6 13 2.6c5.72 0 10.4 4.68 10.4 10.4 0 5.72-4.68 10.4-10.4 10.4zM11.7 9.1h2.6V6.5h-2.6v2.6z"/></symbol><symbol viewBox="0 0 16 17" id="icon-instagram-monochrome" xmlns="http://www.w3.org/2000/svg"><path d="M11.214.802H4.758C2.134.802 0 2.876 0 5.426v6.273c0 2.55 2.134 4.624 4.758 4.624h6.456c2.624 0 4.758-2.074 4.758-4.624V5.426c0-2.55-2.135-4.624-4.758-4.624zM14.365 11.7c0 1.692-1.41 3.063-3.151 3.063H4.758c-1.74 0-3.151-1.371-3.151-3.063V5.426c0-1.691 1.41-3.062 3.151-3.062h6.456c1.74 0 3.151 1.37 3.151 3.062v6.273zM7.986 4.55c-2.278 0-4.13 1.8-4.13 4.014 0 2.213 1.852 4.014 4.13 4.014 2.278 0 4.13-1.8 4.13-4.014 0-2.214-1.852-4.015-4.13-4.015zm0 6.467c-1.394 0-2.524-1.099-2.524-2.453 0-1.355 1.13-2.453 2.524-2.453 1.394 0 2.524 1.098 2.524 2.453 0 1.354-1.13 2.453-2.524 2.453zm4.139-5.476c.547 0 .99-.43.99-.961 0-.532-.443-.962-.99-.962-.547 0-.99.43-.99.962 0 .53.443.961.99.961z"/></symbol><symbol viewBox="0 0 16 16" id="icon-line" xmlns="http://www.w3.org/2000/svg"><defs><path d="M0 0h16v4H0V0zm0 6h16v4H0V6zm0 6h16v4H0v-4z" id="cda"/></defs><use xlink:href="#cda" fill-rule="evenodd"/></symbol><symbol viewBox="0 0 16 16" id="icon-list" xmlns="http://www.w3.org/2000/svg"><defs><path d="M0 0h4v4H0V0zm0 6h4v4H0V6zm0 6h4v4H0v-4zM6 0h10v4H6V0zm0 6h10v4H6V6zm0 6h10v4H6v-4z" id="cea"/></defs><use xlink:href="#cea" fill-rule="evenodd"/></symbol><symbol viewBox="0 0 16 15" id="icon-magent" xmlns="http://www.w3.org/2000/svg"><path d="M14.014 2.434C11.392-.24 7.044-.772 3.747 1.145-.565 3.652-.652 8.491.974 11.241c2.405 4.072 7.556 4.15 9.406 3.38 1.225-.51.68-2.067-.5-1.602-2.328.918-6.246-.002-7.616-3.09-1.257-2.833.038-5.847 2.057-7.209 1.9-1.281 5.476-1.656 8.14.622 2.86 2.446 1.646 6.663.633 7.682-.26.26-.729.051-.688-.354l-.003-6.173c0-.174-.122-.722-.715-.722h-.096c-.38 0-.654.3-.654.695-.844-.827-1.993-1.355-3.216-1.355-2.416 0-4.542 2.101-4.542 4.486 0 2.362 2.126 4.439 4.542 4.439a4.552 4.552 0 0 0 3.189-1.296l.013.44c-.012 1.349 1.788 2.249 2.999 1.323 2.673-2.035 2.833-7.275.091-10.072zm-6.308 8.148c-1.61 0-2.838-1.13-2.838-2.918 0-1.597 1.016-3.004 2.844-3.004h.06c1.586 0 2.899 1.04 2.99 2.768l.003.35c-.083 1.52-1.263 2.804-3.06 2.804z"/></symbol><symbol viewBox="0 0 16 12" id="icon-mail" xmlns="http://www.w3.org/2000/svg"><defs><path d="M2.965 1.515c-.834 0-1.51.704-1.51 1.572v5.826c0 .868.676 1.572 1.51 1.572h10.07c.834 0 1.51-.704 1.51-1.572V3.087c0-.868-.676-1.572-1.51-1.572H2.965zm0-1.515h10.07C14.673 0 16 1.382 16 3.087v5.826C16 10.618 14.673 12 13.035 12H2.965C1.327 12 0 10.618 0 8.913V3.087C0 1.382 1.327 0 2.965 0zM.255 2.562L1.2 1.41l6.51 5.782a.38.38 0 0 0 .508 0l6.583-5.846.944 1.153-6.583 5.845a1.79 1.79 0 0 1-2.396 0L.256 2.562z" id="cga"/></defs><use xlink:href="#cga"/></symbol><symbol viewBox="0 0 9 3" id="icon-minus" xmlns="http://www.w3.org/2000/svg"><defs><rect id="cha" width="9" height="3" rx="1"/></defs><use xlink:href="#cha" fill-rule="evenodd"/></symbol><symbol viewBox="0 0 11 2" id="icon-minus-thin" xmlns="http://www.w3.org/2000/svg"><path d="M.75 1A.75.75 0 0 1 1.5.25H10a.75.75 0 1 1 0 1.5H1.5A.75.75 0 0 1 .75 1z" fill-rule="evenodd"/></symbol><symbol viewBox="0 0 10 16" id="icon-ok" xmlns="http://www.w3.org/2000/svg"><path d="M4.007 10.892c-1.234-.125-2.346-.42-3.298-1.144-.119-.09-.24-.177-.348-.277-.417-.39-.46-.835-.13-1.294.283-.393.756-.498 1.249-.272.095.043.186.098.273.157 1.775 1.185 4.213 1.217 5.994.053a1.65 1.65 0 0 1 .584-.294c.425-.106.822.046 1.05.408.26.412.257.815-.064 1.136a4.86 4.86 0 0 1-1.743 1.095c-.623.234-1.305.353-1.98.43.102.109.15.162.214.224.916.894 1.837 1.785 2.75 2.683.311.306.376.685.205 1.04-.188.39-.607.645-1.018.617-.26-.017-.464-.143-.644-.32-.692-.676-1.396-1.34-2.074-2.029-.197-.2-.292-.162-.466.012-.695.696-1.402 1.381-2.114 2.062-.319.306-.699.361-1.07.187-.393-.186-.643-.576-.624-.969.013-.265.148-.468.335-.65.907-.88 1.811-1.762 2.716-2.643.06-.059.116-.121.203-.212z"/><path d="M4.758 7.827C2.558 7.82.753 6.047.766 3.905.778 1.739 2.584-.006 4.806 0 7.035.006 8.822 1.776 8.81 3.964c-.011 2.138-1.829 3.87-4.052 3.863zm2-3.917C6.755 2.847 5.883 2 4.791 2c-1.102-.001-1.981.86-1.973 1.934.008 1.06.887 1.9 1.983 1.897 1.092-.004 1.961-.856 1.957-1.92z"/></symbol><symbol viewBox="0 0 16 16" id="icon-phone" xmlns="http://www.w3.org/2000/svg"><defs><path d="M4.129 1.517c-.22 0-.422.064-.555.178l-.002.001A57.066 57.066 0 0 0 2.01 3.082c-.295.296-.494.727-.494 1.073 0 .365.123.96.319 1.55.301.904 2.299 3.437 3.662 4.798 1.348 1.35 3.918 3.368 4.8 3.661.589.197 1.18.319 1.543.319.32.003.78-.198 1.076-.493a50.788 50.788 0 0 0 1.385-1.552c.121-.146.18-.344.18-.593 0-.212-.1-.485-.152-.557l-1.236-1.233c-.2-.2-.37-.2-.443-.223-.247 0-.7.152-.865.25l-1.34.805a.772.772 0 0 1-.69.046c-.056-.025-1.4-.61-2.74-1.949C5.676 7.645 5.092 6.3 5.068 6.242a.76.76 0 0 1 .046-.689l.803-1.334a1.64 1.64 0 0 0 .252-.868c0-.184-.122-.344-.224-.446L4.692 1.653a1.587 1.587 0 0 0-.546-.136H4.13zM11.839 16c-.725 0-1.578-.248-2.022-.395-1.252-.418-4.03-2.666-5.393-4.03C3.258 10.41.846 7.532.397 6.186.277 5.825 0 4.91 0 4.154c0-.744.36-1.567.938-2.145.301-.303 1.499-1.34 1.656-1.473C3.014.182 3.612.003 4.166 0c.5.007 1.231.212 1.599.58l1.25 1.252c.439.435.671.962.671 1.52 0 .58-.153 1.119-.468 1.648l-.588.976a8.775 8.775 0 0 0 3.392 3.396l.984-.591c.324-.194 1.045-.465 1.64-.466h.007c.561 0 1.07.223 1.513.666l1.256 1.256c.376.376.578 1.11.578 1.608 0 .606-.183 1.145-.53 1.561-.157.19-1.177 1.354-1.479 1.656-.578.579-1.402.938-2.146.938h-.006z" id="cka"/></defs><use xlink:href="#cka" fill-rule="evenodd"/></symbol><symbol viewBox="0 0 9 9" id="icon-plus" xmlns="http://www.w3.org/2000/svg"><defs><path d="M6 3h2a1 1 0 0 1 1 1v1a1 1 0 0 1-1 1H6v2a1 1 0 0 1-1 1H4a1 1 0 0 1-1-1V6H1a1 1 0 0 1-1-1V4a1 1 0 0 1 1-1h2V1a1 1 0 0 1 1-1h1a1 1 0 0 1 1 1v2z" id="cla"/></defs><use xlink:href="#cla" fill-rule="evenodd"/></symbol><symbol viewBox="0 0 11 10" id="icon-plus-thin" xmlns="http://www.w3.org/2000/svg"><path d="M5.75 0a.75.75 0 0 1 .75.75v3.5H10a.75.75 0 1 1 0 1.5H6.5v3.5a.75.75 0 1 1-1.5 0v-3.5H1.5a.75.75 0 1 1 0-1.5H5V.75A.75.75 0 0 1 5.75 0z" fill-rule="evenodd"/></symbol><symbol viewBox="0 0 16 14" id="icon-refresh" xmlns="http://www.w3.org/2000/svg"><path d="M10.83 12.73a6.576 6.576 0 0 1-3.824 1.223C3.225 13.953.16 10.84.16 7 .16 3.16 3.225.048 7.006.048c3.5.027 6.408 2.748 6.72 6.29l1.198-1.236L16 6.188l-3.077 3.266-3.261-3.265 1.083-1.085 1.477 1.514c-.172-2.805-2.45-4.998-5.216-5.024C4.089 1.617 1.744 4.037 1.767 7c-.023 2.96 2.318 5.379 5.231 5.408a5.1 5.1 0 0 0 2.954-.945l.879 1.267z"/></symbol><symbol viewBox="0 0 37 40" id="icon-safety" xmlns="http://www.w3.org/2000/svg"><defs><path d="M35.078 0l-17.5 5-17.5-5s-.176 2.02 0 5l17.5 5.472L35.078 5c.176-2.98 0-5 0-5zM.398 7.621c.937 9.793 4.433 26.26 17.18 32.379 12.747-6.12 16.243-22.586 17.18-32.379l-17.18 6.46L.398 7.62z" id="coa"/></defs><use xlink:href="#coa" transform="translate(.927)"/></symbol><symbol viewBox="0 0 37 40" id="icon-safety-small" xmlns="http://www.w3.org/2000/svg"><defs><path d="M35.078 0l-17.5 5-17.5-5s-.176 2.02 0 5l17.5 5.472L35.078 5c.176-2.98 0-5 0-5zM.398 7.621c.937 9.793 4.433 26.26 17.18 32.379 12.747-6.12 16.243-22.586 17.18-32.379l-17.18 6.46L.398 7.62z" id="cpa"/></defs><use xlink:href="#cpa" transform="translate(.927)"/></symbol><symbol viewBox="0 0 20 26" id="icon-scroll-arrow" xmlns="http://www.w3.org/2000/svg"><path d="M13.333 24.375V13h5C19.14 13 20 12.39 20 11.375c0-.75-.478-1.13-.9-1.625l-7.433-8.734C11.145.393 10.742 0 10 0S8.853.393 8.333 1.016L.9 9.75c-.422.496-.9.876-.9 1.625C0 12.391.86 13 1.667 13h5v11.375c0 .894.75 1.625 1.666 1.625h3.334c.916 0 1.666-.731 1.666-1.625z"/></symbol><symbol viewBox="0 0 16 16" id="icon-search" xmlns="http://www.w3.org/2000/svg"><defs><path d="M10.047 0C6.87 0 4.29 2.6 4.29 5.9c0 1.3.497 2.6 1.191 3.6L.223 14.8a.79.79 0 0 0 0 1.1c.199 0 .397.1.596.1.198 0 .397-.1.496-.2l5.259-5.3c.992.8 2.183 1.2 3.572 1.2C13.32 11.7 16 9.1 16 5.8 15.9 2.6 13.32 0 10.047 0zm0 10.3c-2.382 0-4.366-2-4.366-4.4 0-2.4 1.984-4.4 4.366-4.4 2.38 0 4.365 2 4.365 4.4 0 2.4-1.984 4.4-4.365 4.4z" id="cra"/></defs><use transform="matrix(-1 0 0 1 16 0)" xlink:href="#cra"/></symbol><symbol viewBox="0 0 14 14" id="icon-share" xmlns="http://www.w3.org/2000/svg"><defs><path d="M11.603 9.124c-.684 0-1.3.293-1.736.76L4.765 7.342c.017-.12.03-.24.03-.365 0-.12-.012-.24-.029-.355L9.861 4.11a2.37 2.37 0 0 0 1.742.766C12.927 4.876 14 3.784 14 2.438 14 1.091 12.927 0 11.603 0c-1.324 0-2.397 1.091-2.397 2.438 0 .121.011.24.028.356L4.139 5.306a2.37 2.37 0 0 0-1.742-.766C1.073 4.54 0 5.632 0 6.978c0 1.347 1.073 2.438 2.397 2.438.684 0 1.3-.292 1.736-.76l5.102 2.541c-.017.12-.03.24-.03.365 0 1.347 1.074 2.438 2.398 2.438S14 12.909 14 11.562c0-1.347-1.073-2.438-2.397-2.438z" id="csa"/></defs><use xlink:href="#csa" fill-rule="evenodd"/></symbol><symbol viewBox="0 0 40 40" id="icon-smile" xmlns="http://www.w3.org/2000/svg"><defs><path d="M20 40c11.046 0 20-8.954 20-20S31.046 0 20 0 0 8.954 0 20s8.954 20 20 20zm0-36.25c8.975 0 16.25 7.275 16.25 16.25S28.975 36.25 20 36.25 3.75 28.975 3.75 20 11.025 3.75 20 3.75zm0 19.64c4.53 0 8.837-1.204 12.5-3.318C31.93 27.042 26.518 32.5 20 32.5S8.07 27.036 7.5 20.066A25.033 25.033 0 0 0 20 23.39zm-10-9.64c0-2.071 1.12-3.75 2.5-3.75s2.5 1.679 2.5 3.75c0 2.071-1.12 3.75-2.5 3.75S10 15.821 10 13.75zm15 0c0-2.071 1.12-3.75 2.5-3.75s2.5 1.679 2.5 3.75c0 2.071-1.12 3.75-2.5 3.75S25 15.821 25 13.75z" id="cta"/></defs><use xlink:href="#cta"/></symbol><symbol viewBox="0 0 16 15" id="icon-star" xmlns="http://www.w3.org/2000/svg"><path d="M16 5.81c0 .17-.125.33-.25.453l-3.49 3.343.827 4.723c.01.066.01.123.01.19 0 .245-.116.472-.395.472a.791.791 0 0 1-.385-.114L8 12.648l-4.317 2.23a.822.822 0 0 1-.385.113c-.279 0-.404-.227-.404-.473 0-.066.01-.123.02-.189l.826-4.723-3.5-3.343C.125 6.14 0 5.979 0 5.809c0-.283.298-.397.538-.434l4.827-.69L7.53.387C7.615.207 7.779 0 8 0c.221 0 .385.208.471.387l2.164 4.298 4.827.69c.23.037.538.15.538.434z"/></symbol><symbol viewBox="0 0 32 30" id="icon-star-big" xmlns="http://www.w3.org/2000/svg"><path d="M16.446 24.36L6.79 29.393l1.844-10.66-7.813-7.55 10.797-1.555 4.828-9.7 4.829 9.7 10.796 1.555-7.812 7.55 1.844 10.66z" fill-rule="evenodd"/></symbol><symbol viewBox="0 0 16 13" id="icon-telegram" xmlns="http://www.w3.org/2000/svg"><path d="M.283 6.233l3.686 1.285L5.396 11.8c.092.274.451.376.69.194L8.14 10.43a.648.648 0 0 1 .747-.02l3.707 2.512c.255.173.616.043.68-.245L15.991.489c.07-.315-.262-.577-.582-.461L.279 5.475a.397.397 0 0 0 .004.758zm4.883.601l7.206-4.141c.13-.074.262.089.151.185L6.577 8.036a1.127 1.127 0 0 0-.382.689l-.203 1.4c-.027.188-.308.206-.364.025L4.85 7.596a.657.657 0 0 1 .317-.762z"/></symbol><symbol viewBox="0 0 10 7" id="icon-tick" xmlns="http://www.w3.org/2000/svg"><path d="M3.192 6.705L.3 3.856a.997.997 0 0 1 0-1.424 1.034 1.034 0 0 1 1.446 0l2.17 2.136L8.253.295a1.034 1.034 0 0 1 1.446 0c.4.393.4 1.031 0 1.424L4.638 6.705a1.034 1.034 0 0 1-1.446 0z" fill-rule="evenodd"/></symbol><symbol viewBox="0 0 23 16" id="icon-tick-big" xmlns="http://www.w3.org/2000/svg"><defs><path d="M9.394 8.664L17.818.691a2.066 2.066 0 0 1 2.808 0l1.404 1.33a1.809 1.809 0 0 1 0 2.657l-11.232 10.63a2.066 2.066 0 0 1-2.808 0L.97 8.665a1.809 1.809 0 0 1 0-2.657l1.404-1.33a2.066 2.066 0 0 1 2.808 0l4.212 3.987z" id="cya"/></defs><use xlink:href="#cya" fill-rule="evenodd"/></symbol><symbol viewBox="0 0 32 22" id="icon-truck" xmlns="http://www.w3.org/2000/svg"><path d="M32 18.998h-3.996v-2.001h1.994V11.16l-1.717-5.157h-7.284v10.993h1.001v2.001h-2.995V4.003H29.72L32 10.839v8.159zM25 22a4.01 4.01 0 0 1-4.003-4.003 4.01 4.01 0 0 1 4.004-4.002 4.01 4.01 0 0 1 4.004 4.002A4.014 4.014 0 0 1 25 22zm0-6.004a2.005 2.005 0 0 0-2 2.001C23 19.1 23.897 20 25 20a2.005 2.005 0 0 0 2.003-2.002A2.005 2.005 0 0 0 25 15.996zM5.999 18.998H2.002v-6.997h1.994v4.996h2.002v2.001zm15 0h-9.002v-2.001h7.007V2H0V0h20.997v18.998zM9 22a4.01 4.01 0 0 1-4.004-4.003A4.01 4.01 0 0 1 9 13.995a4.01 4.01 0 0 1 4.004 4.002A4.014 4.014 0 0 1 9 22zm0-6.004a2.005 2.005 0 0 0-2.002 2.001A2.008 2.008 0 0 0 9.001 20a2.005 2.005 0 0 0 2.002-2.002A2.005 2.005 0 0 0 9 15.996zM1 4.003h9v2.001H1V4.003zm1 3.995h6v2.001H2.002V7.998z"/></symbol><symbol viewBox="0 0 16 13" id="icon-tw" xmlns="http://www.w3.org/2000/svg"><path d="M16 1.538a6.553 6.553 0 0 1-1.885.517A3.297 3.297 0 0 0 15.558.24a6.616 6.616 0 0 1-2.086.797A3.283 3.283 0 0 0 7.88 4.03 9.318 9.318 0 0 1 1.115.6 3.259 3.259 0 0 0 .67 2.25c0 1.14.58 2.144 1.46 2.732A3.282 3.282 0 0 1 .644 4.57v.041a3.286 3.286 0 0 0 2.632 3.22 3.324 3.324 0 0 1-.864.115 3.15 3.15 0 0 1-.618-.061 3.284 3.284 0 0 0 3.065 2.28 6.584 6.584 0 0 1-4.076 1.403c-.265 0-.526-.016-.783-.045A9.276 9.276 0 0 0 5.031 13c6.038 0 9.338-5.002 9.338-9.34l-.01-.426A6.555 6.555 0 0 0 16 1.538z"/></symbol><symbol viewBox="0 0 14 16" id="icon-user" xmlns="http://www.w3.org/2000/svg"><defs><path d="M13.3 16H.8c-.5 0-.8-.3-.8-.7v-1.9c0-.2.1-.4.2-.5C2 11 4.5 10 7 10s5 1 6.8 2.9c.1.1.2.3.2.5v1.9c0 .4-.3.7-.7.7zM1.5 14.5h11v-.8C11 12.3 9.1 11.5 7 11.5s-4.1.8-5.5 2.2v.8zM7 9C4.5 9 2.5 7 2.5 4.5S4.5 0 7 0s4.5 2 4.5 4.5S9.5 9 7 9zm0-7.5c-1.6 0-3 1.3-3 3 0 1.6 1.3 3 3 3s3-1.3 3-3c0-1.6-1.3-3-3-3z" id="dba"/></defs><use xlink:href="#dba" fill-rule="evenodd"/></symbol><symbol viewBox="0 0 20 11" id="icon-vk" xmlns="http://www.w3.org/2000/svg"><path d="M19.894 9.928a1.418 1.418 0 0 0-.068-.126c-.346-.602-1.01-1.341-1.99-2.218l-.02-.02-.01-.01-.01-.01h-.01c-.445-.409-.727-.682-.843-.822-.217-.267-.264-.539-.147-.812.083-.207.396-.645.936-1.314.286-.354.51-.64.678-.854 1.202-1.538 1.723-2.521 1.561-2.95l-.06-.1c-.042-.061-.15-.116-.323-.165-.174-.051-.396-.06-.668-.026l-2.998.02a.397.397 0 0 0-.208.006l-.135.03-.053.025-.04.03a.427.427 0 0 0-.115.105.71.71 0 0 0-.104.175 16.15 16.15 0 0 1-1.115 2.258c-.257.415-.491.775-.708 1.08a5.18 5.18 0 0 1-.54.673 3.6 3.6 0 0 1-.397.346c-.118.087-.208.124-.271.11l-.178-.04a.676.676 0 0 1-.234-.245c-.06-.104-.1-.234-.12-.391a4.474 4.474 0 0 1-.038-.408 6.85 6.85 0 0 1 .007-.481c.008-.207.01-.349.01-.421 0-.254.006-.531.016-.828.01-.297.019-.533.027-.708.006-.174.01-.358.01-.553a2.16 2.16 0 0 0-.037-.456 1.609 1.609 0 0 0-.108-.321.533.533 0 0 0-.214-.24 1.223 1.223 0 0 0-.35-.136c-.367-.08-.836-.124-1.406-.13-1.292-.013-2.12.067-2.488.242a1.387 1.387 0 0 0-.396.301c-.124.148-.142.229-.053.24.417.061.713.205.886.431l.063.12c.05.087.098.24.145.462.05.22.08.464.094.732a7.46 7.46 0 0 1 0 1.255c-.034.348-.067.62-.098.812-.03.195-.077.352-.14.472-.064.12-.105.195-.125.22a.207.207 0 0 1-.051.052.801.801 0 0 1-.282.05c-.098 0-.214-.047-.353-.139a2.506 2.506 0 0 1-.433-.385 5.14 5.14 0 0 1-.506-.689 12.087 12.087 0 0 1-.583-1.044l-.168-.291c-.104-.187-.247-.46-.426-.819-.18-.358-.341-.704-.48-1.038a.665.665 0 0 0-.249-.32l-.053-.03A.654.654 0 0 0 3.758.55a1.219 1.219 0 0 0-.24-.065L.666.505c-.291 0-.49.063-.594.19l-.04.062A.32.32 0 0 0 0 .918c0 .073.02.163.063.271.417.945.87 1.853 1.36 2.73.49.878.914 1.584 1.275 2.119.361.535.729 1.04 1.104 1.514.376.476.623.78.745.913.123.134.217.234.286.3l.261.24c.168.162.413.353.735.577.323.224.68.445 1.074.663.392.216.849.395 1.37.53a4.86 4.86 0 0 0 1.52.166h1.198c.243-.02.426-.094.551-.22l.04-.051a.644.644 0 0 0 .078-.185.98.98 0 0 0 .037-.276 3.28 3.28 0 0 1 .067-.776c.051-.23.11-.406.178-.522.065-.118.14-.216.225-.295a.86.86 0 0 1 .177-.145.633.633 0 0 1 .084-.036c.167-.053.363-.002.588.156.226.157.436.352.634.582.198.23.435.49.713.777.277.287.52.501.728.643l.208.12c.14.08.32.153.541.22.223.067.417.083.584.051l2.666-.039c.263 0 .47-.041.614-.126.145-.084.233-.175.261-.275a.765.765 0 0 0 .006-.342 1.343 1.343 0 0 0-.077-.274z"/></symbol><symbol viewBox="0 0 30 27" id="icon-wallet" xmlns="http://www.w3.org/2000/svg"><path d="M28.125 12.271V5.586a.934.934 0 0 0-.938-.93h-.937V1.861C26.25.834 25.41 0 24.375 0h-22.5A1.869 1.869 0 0 0 0 1.862V26.07c0 .514.42.931.938.931h26.25a.934.934 0 0 0 .937-.931v-6.685A2.794 2.794 0 0 0 30 16.76v-1.862a2.794 2.794 0 0 0-1.875-2.626zM1.875 1.862h22.5v2.793h-22.5V1.862zM26.25 25.138H1.875V6.518H26.25v5.585h-6.563a2.803 2.803 0 0 0-2.812 2.794v1.862a2.803 2.803 0 0 0 2.813 2.793h6.562v5.586zm1.875-8.38c0 .515-.42.932-.938.932h-7.5a.934.934 0 0 1-.937-.931v-1.862c0-.515.42-.931.938-.931h7.5c.517 0 .937.416.937.93v1.863z"/></symbol><symbol viewBox="0 0 8 15" id="icon-ya" xmlns="http://www.w3.org/2000/svg"><path d="M7.294 0H5.065C2.806 0 .527 1.594.527 5.156c0 1.845.818 3.282 2.318 4.1L.1 14.004a.655.655 0 0 0-.01.681.686.686 0 0 0 .595.315h1.388c.316 0 .562-.146.68-.401l2.573-4.812h.188V14.4c0 .325.287.6.626.6h1.213c.381 0 .647-.254.647-.618V.656C8 .27 7.71 0 7.294 0zm-1.78 7.65h-.332c-1.284 0-2.051-1.002-2.051-2.681 0-2.088.969-2.832 1.875-2.832h.508V7.65z"/></symbol><symbol viewBox="0 0 498 344" id="icon-youtube-old" xmlns="http://www.w3.org/2000/svg"><path class="dfst0" d="M251.5 342c-37.2-.2-72.6-.8-108-2.1-20.1-.8-40.1-1.8-60.1-4-10.3-1.1-20.6-2-30.4-5.6-21.5-8.2-34.6-23.7-39.6-46.1-3.7-16.6-5.4-33.5-6.6-50.5-1.8-24-2.7-48.1-2.3-72.2.5-25.9 1.7-51.8 5-77.5 1.5-11.5 2.8-23.1 7.1-33.9C25 29.1 40.8 16.5 62.8 12 77.3 9 92 8 106.7 7c48.7-3.1 97.4-4 146.1-4.1 34.4 0 68.8.7 103.2 2.1 20 .8 39.9 1.8 59.8 4 10.2 1.1 20.6 1.9 30.4 5.6 21.5 8.2 34.6 23.7 39.6 46.1 3.7 16.6 5.4 33.5 6.6 50.5 1.8 24 2.7 48.1 2.3 72.2-.5 25.9-1.7 51.8-4.9 77.5-1.4 11-2.7 22.1-6.6 32.5-8.2 21.7-24.1 34.9-46.8 39.5-16.9 3.4-34.2 4.4-51.4 5.5-44.9 2.7-90.1 3.3-133.5 3.6zm76.3-169.5c-43-24-85.4-47.7-128.1-71.5v143c42.7-23.9 85.2-47.6 128.1-71.5z"/></symbol><symbol viewBox="0 0 30 21" id="icon-yt" xmlns="http://www.w3.org/2000/svg"><g fill-rule="evenodd"><path class="dgmain" d="M28.756 3.314v-.002c-.296-1.07-1.168-1.917-2.278-2.208C25.635.88 23.685.717 21.01.616a167.689 167.689 0 0 0-5.562-.114 105.435 105.435 0 0 0-2.423.012C11.6.53 10.172.563 8.842.61c-2.677.098-4.627.255-5.467.47-1.089.29-1.983 1.165-2.278 2.228C.915 3.982.774 4.944.674 6.11a49.439 49.439 0 0 0-.152 2.782A56.344 56.344 0 0 0 .5 10.156a56.64 56.64 0 0 0 .021 1.257c.027.944.076 1.888.15 2.768.101 1.18.242 2.149.426 2.819.296 1.07 1.168 1.916 2.276 2.206.852.225 2.797.387 5.463.489a167.123 167.123 0 0 0 5.568.114 105.084 105.084 0 0 0 2.423-.012c1.427-.017 2.853-.048 4.183-.097 2.678-.098 4.627-.254 5.47-.47 1.108-.29 1.98-1.137 2.275-2.204.182-.673.323-1.635.423-2.802.076-.884.125-1.833.153-2.782a56.345 56.345 0 0 0 .021-1.265v-.017c.001-.32-.003-.796-.02-1.374a46.578 46.578 0 0 0-.142-2.659c-.1-1.174-.244-2.14-.434-2.813zm.963-.27v-.001z" opacity=".7"/><path class="dgplay-icon" fill-rule="nonzero" d="M11.95 14.505l7.771-4.35-7.77-4.348z"/></g></symbol><symbol viewBox="0 0 30 21" id="icon-yt-color" xmlns="http://www.w3.org/2000/svg"><path d="M29.238 3.178C28.893 1.936 27.885.956 26.607.621 24.27 0 14.927 0 14.927 0S5.581 0 3.245.597C1.992.932.959 1.936.615 3.178 0 5.448 0 10.156 0 10.156s0 4.73.615 6.977c.344 1.243 1.352 2.222 2.63 2.557 2.362.621 11.681.621 11.681.621s9.344 0 11.68-.597c1.28-.335 2.287-1.314 2.632-2.557.614-2.27.614-6.978.614-6.978s.025-4.73-.614-7z"/><path d="M11.95 14.505l7.771-4.35-7.77-4.348z"/></symbol><symbol viewBox="0 0 30 21" id="icon-yt-monochrome" xmlns="http://www.w3.org/2000/svg"><path d="M29.238 3.178c.639 2.27.614 7.001.614 7.001s0 4.708-.614 6.978c-.345 1.243-1.353 2.222-2.631 2.557-2.337.597-11.68.597-11.68.597s-9.32 0-11.681-.621C1.967 19.355.959 18.376.615 17.133 0 14.887 0 10.156 0 10.156s0-4.708.615-6.978C.959 1.936 1.992.932 3.245.598 5.583 0 14.927 0 14.927 0s9.344 0 11.68.621c1.28.335 2.287 1.315 2.632 2.557zM11.95 14.505l7.77-4.35-7.77-4.348v8.698z"/></symbol></svg>